<?xml version="1.0" encoding="utf-8"?>
<!-- Generator: Adobe Illustrator 16.0.0, SVG Export Plug-In . SVG Version: 6.00 Build 0)  -->
<!DOCTYPE svg PUBLIC "-//W3C//DTD SVG 1.1//EN" "http://www.w3.org/Graphics/SVG/1.1/DTD/svg11.dtd">
<svg version="1.1" id="Capa_1" xmlns="http://www.w3.org/2000/svg" xmlns:xlink="http://www.w3.org/1999/xlink" x="0px" y="0px"
	 width="800px" height="800px" viewBox="0 0 800 800" enable-background="new 0 0 800 800" xml:space="preserve">
<g>
	<path fill="#138899" d="M3641.339,899.641c-0.538-1.354-0.921-2.32-1.29-3.256c1.661-0.607,3.139-1.146,5.543-2.026
		C3644.001,896.335,3642.803,897.823,3641.339,899.641z"/>
	<path fill="#138899" d="M3666.867,867.725c-1.642,0.097-2.918,0.168-4.926,0.282c0.199-0.842,0.114-2.241,0.676-2.556
		C3664.652,864.306,3665.635,865.856,3666.867,867.725z"/>
	<path fill="#138899" d="M3544.554,896.117c0.177-1.494,0.355-2.988,0.533-4.48c0.204-0.1,0.409-0.197,0.612-0.298
		c0.472,0.849,1.307,1.692,1.311,2.542c0.006,0.889-0.787,1.782-1.231,2.673C3545.369,896.408,3544.961,896.264,3544.554,896.117z"
		/>
	<path fill="#138899" d="M3512.482,877.092c-0.74,1.154-1.481,2.308-2.47,3.846c-0.275-1.146-1.034-2.453-0.65-3.223
		c0.366-0.734,1.923-0.907,2.954-1.327C3512.372,876.622,3512.428,876.857,3512.482,877.092z"/>
	<path fill="#138899" d="M3684.816,898.085c-2.377-9.461-2.729-18.78-0.064-28.184c3.449-12.173,1.37-22.938-8.523-31.711
		c-0.078-0.067-0.143-0.153-0.219-0.228c-6.66-6.477-11.572-13.946-13.947-22.913c-0.633-2.395-1.595-4.708-2.444-7.044
		c-3.111-8.557-9.316-13.929-18.179-16.382c-11.416-3.163-21.643-8.107-30.121-16.539c-5.839-5.811-12.955-9.851-21.885-8.947
		c-3.054,0.312-6.115,0.81-9.095,1.524c-9.55,2.297-19.03,2.607-28.682,0.333c-5.171-1.218-10.558-1.571-15.666-2.287l-3.304,1.493
		c-0.052-0.064-0.101-0.126-0.152-0.191c-1.536,0.688-2.928,1.31-3.965,1.771c0.032,0.085,0.063,0.154,0.096,0.237l-2.859,1.292
		c-2.207,1.741-4.986,3.383-7.039,5.645c-7.968,8.779-18.871,12.733-29.639,16.253c-5.195,1.699-9.559,3.856-12.861,7.612
		c-2.475,2.813-4.387,6.461-5.42,10.046c-3.492,12.086-9.582,22.463-18.791,31.331c-5.292,5.092-8.104,11.606-7.38,19.133
		c0.24,2.48,0.427,5.016,1.093,7.405c2.938,10.506,3.354,20.941,0.129,31.493c-3.682,12.049,0.096,22.086,9.105,30.688
		c5.824,5.56,10.568,11.86,12.932,19.642c1.023,3.362,2.307,6.647,3.445,9.978c2.908,8.512,8.885,13.917,17.653,16.404
		c11.47,3.253,21.948,8.01,30.413,16.632c8.262,8.414,18.533,10.609,30.076,7.843c3.798-0.911,7.672-1.62,11.553-2.07
		c8.386-0.974,16.434,1.301,24.602,2.599c6.348,1.01,12.791,1.027,18.392-2.798c3.125-2.13,6.126-4.48,8.912-7.017
		c6.686-6.079,13.965-10.979,23.057-13.102c13.188-3.08,22.422-10.26,25.578-23.781c2.269-9.729,7.556-17.871,14.771-24.92
		c1.284-1.253,1.818-3.2,2.924-4.667c1.555-2.05,3.738-3.738,4.908-5.955C3687.748,912.007,3686.533,904.906,3684.816,898.085z
		 M3513.066,785.727l-0.877,0.549c-0.025-0.093-0.051-0.185-0.074-0.275C3512.432,785.909,3512.75,785.817,3513.066,785.727z"/>
</g>
<g>
	<g>
		<defs>
			<rect id="SVGID_1_" x="3525.732" y="-151.5" width="243.11" height="180.954"/>
		</defs>
		<clipPath id="SVGID_2_">
			<use xlink:href="#SVGID_1_"  overflow="visible"/>
		</clipPath>
		<g clip-path="url(#SVGID_2_)">
			<path fill="#C5D92F" d="M3604.814-203.21c1.127,1.011,1.953,1.834,2.901,2.523c0.144,0.104,1.254-0.518,1.22-0.628
				c-0.313-1.004-0.778-1.969-1.357-3.31c1.037-0.429,2.429-1.003,3.966-1.638c0.573,0.671,1.079,1.261,1.813,2.121
				c0.521-1.058,0.891-1.804,1.642-3.324c5.109,0.662,10.495,0.988,15.666,2.114c9.651,2.103,19.132,1.814,28.683-0.308
				c2.979-0.662,6.041-1.123,9.096-1.409c8.929-0.835,16.045,2.899,21.885,8.269c8.479,7.793,18.704,12.362,30.12,15.285
				c8.862,2.269,15.065,7.233,18.178,15.142c0.852,2.159,1.813,4.297,2.445,6.51c2.374,8.288,7.287,15.191,13.947,21.177
				c0.075,0.068,0.14,0.146,0.219,0.209c9.894,8.108,11.974,18.059,8.524,29.309c-2.666,8.69-2.313,17.304,0.063,26.048
				c1.716,6.304,2.931,12.866-0.599,19.056c-1.17,2.049-3.354,3.608-4.908,5.504c-1.105,1.354-1.641,3.154-2.924,4.313
				c-7.217,6.514-12.504,14.039-14.771,23.031c-3.156,12.497-12.389,19.132-25.578,21.979c-9.092,1.962-16.371,6.49-23.057,12.109
				c-2.787,2.343-5.787,4.516-8.911,6.484c-5.601,3.535-12.046,3.518-18.392,2.585c-8.168-1.198-16.217-3.301-24.603-2.4
				c-3.881,0.416-7.755,1.071-11.553,1.913c-11.543,2.558-21.813,0.527-30.076-7.249c-8.465-7.968-18.942-12.365-30.413-15.371
				c-8.769-2.299-14.745-7.295-17.652-15.161c-1.14-3.077-2.423-6.113-3.445-9.221c-2.363-7.191-7.107-13.015-12.932-18.152
				c-9.012-7.95-12.787-17.227-9.105-28.361c3.227-9.753,2.809-19.397-0.129-29.107c-0.666-2.209-0.854-4.551-1.093-6.845
				c-0.727-6.955,2.088-12.977,7.38-17.683c9.209-8.196,15.299-17.786,18.791-28.957c1.033-3.313,2.945-6.685,5.42-9.284
				c3.303-3.47,7.666-5.466,12.861-7.035c10.768-3.252,21.67-6.907,29.639-15.021
				C3599.828-200.085,3602.607-201.602,3604.814-203.21z M3633.54-178.922c0.091,0.574,0.221,1.396,0.353,2.225
				c2.129-1.03,3.943-1.908,5.709-2.762c-1.246-0.697-2.338-1.308-2.713-1.517c0-2.337,0.097-3.903-0.07-5.442
				c-0.039-0.355-1.014-0.893-1.493-0.835c-0.369,0.044-0.902,0.888-0.901,1.375c0.004,1.309,0.258,2.616,0.409,3.926
				c-1.563,2.289-6.096,1.063-6.549,5.583C3630.494-177.442,3632.039-178.192,3633.54-178.922z M3631.114-166.163
				c0.092-1.742,0.073-2.846,0.232-3.923c0.115-0.779,0.468-1.527,0.716-2.288c0.623,0.438,1.248,0.876,2.412,1.691
				c0.313-1.07,0.994-2.296,0.904-3.466c-0.062-0.778-1.22-1.479-1.886-2.214c-0.231,0.149-0.463,0.301-0.694,0.449
				c0,0.738,0,1.477,0,2.973c-0.816-1.424-1.256-2.192-1.977-3.451c-0.479,0.875-1.092,1.574-0.946,1.79
				c1.41,2.088,0.381,2.579-1.638,2.901c-0.639,0.102-1.117,1.155-1.668,1.774c0.185,0.185,0.367,0.37,0.554,0.556
				c0.685-0.049,1.368-0.098,2.08-0.147c-0.476,0.947-0.858,1.715-1.242,2.48C3628.895-166.778,3629.824-166.52,3631.114-166.163z
				 M3598.001-179.113c-1.155,1.415-2.319,2.843-3.701,4.536c2.04,0.586,3.531,1.015,5.023,1.442
				c0.448-0.159,0.898-0.319,1.349-0.479C3594.534-174.612,3600.902-177.175,3598.001-179.113z M3586.352-170.692
				c0.242-0.034,0.484-0.069,0.729-0.105c0.26-1.141,0.521-2.279,0.916-4.006c-1.873,0.133-3.396,0.023-4.741,0.45
				c-0.486,0.154-0.547,1.584-0.802,2.432c0.239,0.079,0.479,0.158,0.721,0.237c0.515-0.763,1.027-1.524,1.619-2.399
				C3585.39-172.788,3585.872-171.739,3586.352-170.692z M3633.686-190.234c-0.234-0.229-0.471-0.454-0.705-0.682
				c-0.721,0.639-2.157,1.479-2.037,1.884c0.493,1.677,1.461,3.222,2.254,4.813c0.162-0.136,0.325-0.271,0.488-0.405
				C3633.686-186.494,3633.686-188.365,3633.686-190.234z M3713.258-51.197c1.465-1.817,2.662-3.305,4.254-5.282
				c-2.404,0.88-3.883,1.419-5.545,2.026C3712.337-53.519,3712.719-52.553,3713.258-51.197z M3738.785-83.112
				c-1.23-1.87-2.215-3.419-4.25-2.273c-0.56,0.314-0.476,1.715-0.674,2.557C3735.867-82.945,3737.146-83.018,3738.785-83.112z
				 M3629.63-186.692c-0.33-0.765-0.632-1.469-0.781-1.813c-1.243,0.325-2.4,0.298-2.847,0.832
				c-0.518,0.619-0.408,1.731-0.673,3.177C3627.247-185.476,3628.326-186.025,3629.63-186.692z M3623.679-188.133
				c-1.801,0.415-3.118,0.719-4.624,1.066c0.196,0.972,0.438,2.178,0.848,4.221C3621.385-184.923,3622.391-186.328,3623.679-188.133
				z M3574.753-164.604c-0.432,0.234-0.862,0.47-1.293,0.704c0.601,1.176,1.2,2.351,1.802,3.526
				c0.527-0.323,1.534-0.891,1.512-0.935C3576.165-162.441,3575.45-163.518,3574.753-164.604z M3616.472-54.721
				c0.408,0.146,0.815,0.291,1.226,0.438c0.443-0.891,1.236-1.784,1.232-2.674c-0.004-0.849-0.841-1.695-1.311-2.541
				c-0.205,0.1-0.409,0.197-0.614,0.297C3616.827-57.707,3616.65-56.214,3616.472-54.721z M3592.609-183.598
				c1.393-2.15,1.219-3.973-0.535-5.367c-0.316,0.085-0.635,0.169-0.951,0.252C3591.617-187.007,3592.113-185.303,3592.609-183.598z
				 M3584.4-73.745c-0.056-0.234-0.109-0.469-0.164-0.705c-1.033,0.42-2.59,0.594-2.955,1.328c-0.384,0.768,0.373,2.076,0.651,3.223
				C3582.92-71.438,3583.662-72.592,3584.4-73.745z M3590.17-171.354c0.354-0.107,0.708-0.215,1.061-0.322
				c-0.299-1.306-0.601-2.612-1.032-4.49C3587.528-173.592,3588.504-172.399,3590.17-171.354z"/>
			<path fill="#C5D92F" d="M3640.629-219.131c-1.503,0.729-3.046,1.479-5.257,2.554c0.455-4.52,4.985-3.294,6.549-5.584
				c-0.153-1.309-0.403-2.616-0.409-3.925c-0.001-0.487,0.533-1.331,0.902-1.376c0.479-0.057,1.452,0.479,1.492,0.835
				c0.167,1.54,0.07,3.106,0.07,5.444c0.375,0.208,1.467,0.818,2.711,1.515c-1.765,0.854-3.577,1.732-5.707,2.762
				C3640.85-217.734,3640.721-218.557,3640.629-219.131z"/>
			<path fill="#C5D92F" d="M3638.203-206.372c-1.29-0.356-2.221-0.614-3.151-0.872c0.384-0.767,0.768-1.533,1.242-2.482
				c-0.711,0.051-1.396,0.1-2.081,0.148c-0.184-0.186-0.367-0.371-0.552-0.556c0.55-0.619,1.028-1.673,1.667-1.775
				c2.019-0.322,3.047-0.813,1.637-2.9c-0.145-0.217,0.467-0.915,0.947-1.791c0.721,1.259,1.16,2.028,1.977,3.452
				c0-1.495,0-2.234,0-2.973c0.231-0.149,0.463-0.3,0.692-0.449c0.669,0.735,1.827,1.435,1.888,2.214
				c0.091,1.17-0.591,2.396-0.906,3.467c-1.164-0.817-1.787-1.256-2.412-1.693c-0.244,0.762-0.598,1.509-0.714,2.288
				C3638.277-209.217,3638.295-208.114,3638.203-206.372z"/>
			<path fill="#C5D92F" d="M3605.09-219.323c2.902,1.94-3.467,4.503,2.671,5.501c-0.448,0.16-0.898,0.32-1.349,0.479
				c-1.492-0.428-2.984-0.856-5.022-1.442C3602.771-216.479,3603.934-217.907,3605.09-219.323z"/>
			<path fill="#C5D92F" d="M3593.441-210.9c-0.48-1.048-0.963-2.096-1.56-3.392c-0.591,0.875-1.104,1.637-1.62,2.398
				c-0.239-0.079-0.48-0.158-0.722-0.236c0.256-0.848,0.315-2.277,0.805-2.432c1.344-0.426,2.865-0.317,4.74-0.45
				c-0.396,1.726-0.655,2.865-0.918,4.006C3593.926-210.971,3593.682-210.936,3593.441-210.9z"/>
			<path fill="#C5D92F" d="M3640.773-230.443c0,1.87,0,3.741,0,5.61c-0.162,0.135-0.326,0.271-0.488,0.406
				c-0.792-1.593-1.76-3.138-2.254-4.813c-0.121-0.404,1.316-1.245,2.037-1.885C3640.305-230.897,3640.539-230.67,3640.773-230.443z
				"/>
			<path fill="#C5D92F" d="M3720.347-91.405c-0.538-1.354-0.921-2.321-1.29-3.256c1.66-0.608,3.139-1.147,5.543-2.027
				C3723.009-94.711,3721.811-93.223,3720.347-91.405z"/>
			<path fill="#C5D92F" d="M3745.875-123.321c-1.641,0.096-2.918,0.168-4.925,0.282c0.198-0.842,0.114-2.241,0.675-2.556
				C3743.66-126.74,3744.645-125.189,3745.875-123.321z"/>
			<path fill="#C5D92F" d="M3636.719-226.901c-1.305,0.667-2.381,1.218-4.299,2.196c0.262-1.444,0.154-2.558,0.671-3.176
				c0.444-0.535,1.604-0.506,2.847-0.833C3636.087-228.369,3636.389-227.666,3636.719-226.901z"/>
			<path fill="#C5D92F" d="M3630.768-228.341c-1.289,1.805-2.291,3.208-3.775,5.286c-0.41-2.041-0.65-3.248-0.848-4.221
				C3627.648-227.623,3628.967-227.926,3630.768-228.341z"/>
			<path fill="#C5D92F" d="M3581.841-204.813c0.697,1.086,1.413,2.163,2.022,3.295c0.021,0.044-0.985,0.612-1.514,0.935
				c-0.602-1.175-1.201-2.35-1.802-3.525C3580.979-204.344,3581.41-204.578,3581.841-204.813z"/>
			<path fill="#C5D92F" d="M3623.563-94.929c0.178-1.494,0.354-2.988,0.532-4.48c0.204-0.1,0.409-0.198,0.613-0.298
				c0.471,0.848,1.306,1.692,1.31,2.542c0.007,0.889-0.787,1.782-1.231,2.673C3624.377-94.638,3623.969-94.782,3623.563-94.929z"/>
			<path fill="#C5D92F" d="M3599.698-223.807c-0.497-1.704-0.991-3.409-1.486-5.114c0.317-0.084,0.635-0.167,0.952-0.252
				C3600.916-227.779,3601.091-225.957,3599.698-223.807z"/>
			<path fill="#C5D92F" d="M3591.49-113.954c-0.74,1.154-1.481,2.307-2.469,3.846c-0.276-1.146-1.035-2.454-0.651-3.223
				c0.366-0.734,1.923-0.907,2.954-1.327C3591.38-114.424,3591.436-114.188,3591.49-113.954z"/>
			<path fill="#C5D92F" d="M3597.259-211.562c-1.667-1.047-2.644-2.238,0.026-4.814c0.435,1.879,0.734,3.185,1.035,4.49
				C3597.967-211.778,3597.613-211.671,3597.259-211.562z"/>
		</g>
	</g>
</g>
<g id="Your_Icon_1_">
	<path fill="#C5D92F" d="M4250.35,38.257h-114.342c-14.328,0-25.984,11.652-25.984,25.982V326.24
		c0,14.333,11.656,25.984,25.984,25.984h114.342c14.328,0,25.986-11.651,25.986-25.984V64.239
		C4276.329,49.909,4264.674,38.257,4250.35,38.257z M4178.668,45.413h29.018c1.271,0,2.305,1.032,2.305,2.306
		c0,1.274-1.033,2.307-2.305,2.307h-29.018c-1.271,0-2.305-1.033-2.305-2.307C4176.363,46.445,4177.396,45.413,4178.668,45.413z
		 M4210.836,337.387c0,2.82-2.288,5.107-5.111,5.107h-25.092c-2.824,0-5.112-2.287-5.112-5.107v-2.382
		c0-2.819,2.289-5.109,5.112-5.109h25.092c2.824,0,5.111,2.29,5.111,5.109V337.387z M4266.818,325.05h-147.283V66.174h147.283
		V325.05z"/>
</g>
<g id="Task_list_1_">
	<path d="M4762.334,146.415h-334.395c-5.133,0-9.289,4.156-9.289,9.288v408.701c0,5.132,4.155,9.288,9.289,9.288h334.395
		c5.135,0,9.287-4.156,9.287-9.288V155.703C4771.621,150.571,4767.461,146.415,4762.334,146.415z M4753.041,164.992v390.124H4437.23
		V164.992H4753.041z"/>
	<path d="M4465.096,397.211h55.729c5.138,0,9.288-4.16,9.288-9.292v-55.73c0-5.132-4.15-9.292-9.288-9.292h-55.729
		c-5.136,0-9.287,4.16-9.287,9.292v55.73C4455.809,393.051,4459.96,397.211,4465.096,397.211z M4474.38,341.478h37.157v37.152
		h-37.157V341.478z"/>
	<path d="M4465.096,295.036h55.729c5.138,0,9.288-4.156,9.288-9.288V230.01c0-5.128-4.15-9.288-9.288-9.288h-4.489l2.041-8.162
		c0.617-2.486-0.889-5.007-3.385-5.629c-2.479-0.65-5.006,0.889-5.629,3.376l-2.606,10.415h-41.66c-5.136,0-9.288,4.16-9.288,9.288
		v55.729C4455.809,290.872,4459.96,295.036,4465.096,295.036z M4474.38,239.302h27.718l-4.33,17.301l-6.863-9.484
		c-1.516-2.087-4.41-2.538-6.483-1.039c-2.078,1.502-2.556,4.41-1.043,6.483l11.629,16.077c0.229,0.317,0.567,0.484,0.854,0.726
		c0.599,1.106,1.61,1.979,2.924,2.305c0.373,0.096,0.756,0.141,1.127,0.141c2.084,0,3.974-1.401,4.506-3.513l7.111-28.412v36.573
		h-37.157v-37.157L4474.38,239.302L4474.38,239.302z"/>
	<path d="M4465.096,499.386h55.729c5.138,0,9.288-4.16,9.288-9.287V434.36c0-5.132-4.15-9.287-9.288-9.287h-55.729
		c-5.136,0-9.287,4.155-9.287,9.287v55.729C4455.809,495.222,4459.96,499.386,4465.096,499.386z M4474.38,443.648h37.157v37.156
		h-37.157V443.648z"/>
	<path d="M4567.271,267.167h111.463c5.137,0,9.287-4.156,9.287-9.288c0-5.133-4.15-9.288-9.287-9.288h-111.463
		c-5.138,0-9.289,4.155-9.289,9.288C4557.982,263.011,4562.135,267.167,4567.271,267.167z"/>
	<path d="M4678.768,350.766h-111.463c-5.137,0-9.289,4.156-9.289,9.288c0,5.133,4.152,9.288,9.289,9.288h111.463
		c5.138,0,9.289-4.155,9.289-9.288C4688.057,354.922,4683.904,350.766,4678.768,350.766z"/>
	<path d="M4567.271,471.518h111.463c5.137,0,9.287-4.155,9.287-9.287c0-5.134-4.15-9.289-9.287-9.289h-111.463
		c-5.138,0-9.289,4.155-9.289,9.289C4557.982,467.361,4562.135,471.518,4567.271,471.518z"/>
</g>
<path fill="#E7EEE0" d="M256.417,643.431c-62.445,0-124.899,0-187.344,0c-7.196,0-7.196,11.149,0,11.149
	c62.444,0,124.898,0,187.344,0C263.619,654.576,263.619,643.431,256.417,643.431L256.417,643.431z"/>
<path fill="#E7EEE0" d="M270.552,611.671c-57.74,0-115.487,0-173.222,0c-6.916,0-6.916,10.724,0,10.724
	c57.734,0,115.482,0,173.222,0C277.461,622.395,277.461,611.671,270.552,611.671L270.552,611.671z"/>
<path fill="#E7EEE0" d="M236.347,580.236c-62.447,0-124.895,0-187.341,0c-7.197,0-7.197,11.146,0,11.146
	c62.446,0,124.894,0,187.341,0C243.539,591.389,243.539,580.236,236.347,580.236L236.347,580.236z"/>
<path fill="#42A0AD" d="M738.417,147.871c0,30.582-24.788,55.369-55.371,55.369c-30.579,0-55.368-24.787-55.368-55.369
	c0-30.58,24.789-55.367,55.368-55.367C713.629,92.504,738.417,117.291,738.417,147.871z"/>
<path fill="#42A0AD" d="M777.991,281.044c-4.625-14.617-16.418-23.926-26.359-20.786l-85.806,27.09l-29.165-82.468
	c-0.344-0.947-0.856-1.768-1.357-2.533c-0.07-0.06-0.118-0.06-0.118-0.084c-0.163-0.295-0.407-0.561-0.623-0.854
	c-1.361-1.865-3.01-3.51-4.997-4.569l-9.688-6.77c0.982,1.499,1.864,3.005,2.602,4.509l-0.516-0.241l-1.135-0.091
	c9.191,43.128-44.854,94.183-122.543,114.999c-24.461,6.559-48.388,9.336-70.121,8.767c-9.188,10.947-2.349,27.242-2.349,27.242
	L401.6,478.597c-0.189,0.182-0.35,0.337-0.509,0.562l-96.108,116.665c-8.033,9.733-3.274,26.844,10.488,38.236
	c13.827,11.382,31.551,12.693,39.531,2.972l96.075-116.683c1.724-2.071,2.783-4.454,3.373-7.067c0.784-1.567,1.338-3.198,1.63-4.948
	l21.692-119.377c0.059,0,0.059,0,0.059,0l42.621,63.005l-74.688,90.914c-8.04,9.73-3.328,26.876,10.473,38.245
	c13.835,11.338,31.558,12.639,39.541,2.934l88.781-107.98c2.775-2.599,5.1-5.462,6.853-8.389l0.346-0.4
	c2.437-2.904,3.671-6.504,3.857-10.366c0.799-4.914,0.054-9.629-2.618-13.458l-1.404-2.117c-1.076-1.951-2.378-3.886-3.904-5.719
	L536.61,360.21l70.32-74.67l15.23,43.081c0.106,0.506,0.211,0.982,0.401,1.464c4.581,14.646,16.416,23.96,26.401,20.78
	l119.397-37.657C778.293,310.058,782.643,295.68,777.991,281.044z"/>
<path fill="#C5D92F" d="M287.819,243.021c-8.493-8.406-7.832-38.531,0.813-47.856c1.902-2.051,11.152-0.41,11.152-0.41
	l13.222-65.145l-51.431,2.241c0,0-7.39,1.957-11.434,7.486c-19.952,27.294-21.466,45.184-23.761,77.987
	c-3.498,50.059,12.584,80.486,19.722,91.243c1.812,2.723,5.004,5.111,5.004,5.111l3.958,0.223l54.951-0.14l-8.378-68.107
	C301.638,245.655,290.322,245.498,287.819,243.021z"/>
<path fill="#C5D92F" d="M371.816,284.31c-1.166-5.994-4.823-31.312-5.116-34.751c-1.441-17.048-1.136-9.686-0.214-32.839
	c1.172-29.476,10.899-48.393,11.05-48.722c3.297-7.177,14.747-41.35,14.747-41.35l-62.067,1.633c0,0-3.86,1.047-4.936,1.938
	c-1.306,1.083-2.072,4.846-2.072,4.846l-15.074,70.422c0,0-10.958-1.945-13.208,0.481c-5.518,5.957-5.305,27.621,1.185,32.499
	c2.646,1.987,13.208-0.479,13.208-0.479l7.365,67.829c0,0,0.598,5.664,2.298,7.137c1.461,1.265,6.385,1.541,6.385,1.541
	l51.615-1.889L371.816,284.31z"/>
<path fill="#C5D92F" d="M625.43,189.073c-0.51-1.588-2.289-5.241-2.967-6.757l-15.489,1.646c1.101,2.037,3.564,5.86,4.281,8.078
	c11.896,36.848-33.702,84.733-103.292,107.19c-45.354,14.633-89.187,14.761-117.519,2.881l0.087-0.07l-4.447-1.918
	c-0.279-0.141-0.57-0.271-0.847-0.412l-0.025,0.03l-9.085-4.431l2.201,16.263l0.044-0.036c31.972,14.671,81.784,15.34,133.163-1.241
	C589.451,285.156,639.296,232.033,625.43,189.073z"/>
<path fill="#42A0AD" d="M605.018,196.023c-0.604-2.25-1.418-4.416-2.416-6.508l0.104-0.012c-3.069-4.991-7.508-12.149-8.92-13.616
	c-13.933-14.47-12.298-12.532-12.298-12.532s-0.341-0.282-0.926-0.759c0,0-12.306-7.995-16.944-9.399
	c-17.62-5.342-117.554-3.957-120.147-3.83c-2.785-0.105-17.956,3.52-20.293,4.899c0,0-5.033,6.025-7.476,11.212
	c-4.254,9.038,5.873,39.517,5.873,39.517l0.612,0.188l33.381,85.524l-16.309,15.46c7.042-0.126,14.316-0.631,21.751-1.517
	l0.938,2.402c4.35,9.469,22.989,18.249,36.942,11.837c10.575-4.848,15.395-17,15.213-26.723
	C574.406,270.789,614.121,229.997,605.018,196.023z M498.4,250.104l-13.946-33.608l1.955-1.693l58.872-9.139L498.4,250.104z"/>
<path fill="#C5D92F" d="M488.75,127.865c-51.218-2.024-62.994-2.803-94.189-0.689c-1.271,3.735-3.358,9.729-4.561,13.169
	c31.695-2.294,52.243-1.625,94.843,0.175c56.125,2.373,104.782,16.013,121.97,43.808l17.138,1.391l0.516,0.241
	C607.663,151.606,554.528,130.464,488.75,127.865z"/>
<image overflow="visible" enable-background="new    " width="128" height="82" xlink:href="78479AE3.jpg"  transform="matrix(1.5625 0 0 1.561 3213 -45.999)">
</image>
<path fill="#138899" d="M3770.102-190.022c-81.877,0-163.428,0-245.438,0c1.492-10.662,2.945-21.111,4.42-31.557
	c1.325-9.379,2.876-18.73,3.956-28.138c1.01-8.795,7.839-16.655,18.239-16.244c13.771,0.544,27.577,0.159,41.37,0.126
	c13.136-0.032,24.318-10.907,24.314-23.991c-0.003-10.035,0.191-20.152-0.971-30.085c-1.178-10.052-6.577-18.52-13.25-26.116
	c-22.1-25.165-21.486-61.158,1.373-84.312c23.186-23.48,60.716-24.297,84.8-1.845c24.177,22.538,26.143,60.11,4.169,85.106
	c-10.34,11.763-16.018,24.974-15.217,40.804c0.268,5.302,0.031,10.629,0.054,15.944c0.054,13.33,11.071,24.453,24.323,24.489
	c14.221,0.038,28.444-0.01,42.668,0.018c8.289,0.015,15.256,5.453,16.479,13.501c3.058,20.148,5.828,40.341,8.703,60.518
	C3770.154-191.385,3770.102-190.947,3770.102-190.022z M3542.152-205.218c70.736,0,140.57,0,210.699,0
	c-1.944-13.469-4.137-26.486-5.558-39.586c-0.543-4.995-2.42-5.944-6.965-5.837c-12.489,0.296-24.992,0.129-37.487,0.07
	c-22.433-0.104-40.152-17.878-40.175-40.235c-0.004-4.453,0.133-8.911-0.055-13.357c-0.869-20.531,5.799-38.042,19.44-53.53
	c17.353-19.698,14.031-49.822-6.467-65.896c-20.389-15.987-50.021-11.714-65.223,9.407c-12.691,17.632-11.18,40.731,3.986,58.297
	c8.332,9.649,14.869,20.413,16.588,33.028c1.463,10.741,1.186,21.752,1.241,32.646c0.111,21.567-17.789,39.48-39.364,39.646
	c-10.197,0.077-20.396,0.024-30.595,0.028c-4.426,0.002-8.852,0.001-13.612,0.001
	C3546.43-235.237,3544.313-220.389,3542.152-205.218z"/>
<path opacity="0.32" fill="#B3C99F" enable-background="new    " d="M3701.854-332.47c4.758-7.288,9.241-14.253,13.861-21.128
	c0.651-0.971,1.859-1.742,2.978-2.206c56.429-23.428,112.876-46.813,169.323-70.192c0.254-0.104,0.559-0.081,1.525-0.206
	c9.556,23.046,19.182,46.257,28.958,69.83c-9.065,3.788-17.889,7.503-26.731,11.166c-50.354,20.855-100.703,41.717-151.092,62.489
	c-2.312,0.953-4.958,1.477-7.458,1.513c-10.998,0.161-22,0.07-32.999,0.07c-0.079-0.354-0.16-0.708-0.238-1.063
	c66.127-27.398,132.254-54.798,198.707-82.332c-5.848-14.11-11.591-27.967-17.496-42.214
	C3821.159-381.88,3761.486-357.166,3701.854-332.47z"/>
<path d="M3525.941-159.785c0-4.903,0-9.59,0-14.487c81.039,0,161.836,0,242.977,0c0,4.608,0,9.273,0,14.487
	C3688.203-159.785,3607.271-159.785,3525.941-159.785z"/>
<path opacity="0.32" fill="#B3C99F" enable-background="new    " d="M3721.061-408.197c-1.93-4.879-3.765-9.52-5.616-14.204
	c34.504-33.037,96.274-34.96,133.291-3.876c-4.873,2.044-9.584,4.129-14.396,5.947c-1.009,0.383-2.563,0.123-3.57-0.404
	c-39.094-20.462-75.383-16.249-108.967,12.233C3721.699-408.412,3721.54-408.39,3721.061-408.197z"/>
<path fill="#FFFFFF" d="M3542.152-205.218c2.16-15.171,4.277-30.021,6.457-45.318c4.762,0,9.188,0.001,13.613-0.001
	c10.197-0.004,20.396,0.049,30.594-0.028c21.576-0.165,39.477-18.078,39.365-39.646c-0.058-10.894,0.221-21.904-1.242-32.646
	c-1.719-12.615-8.256-23.379-16.588-33.028c-15.165-17.565-16.678-40.665-3.986-58.297c15.2-21.121,44.834-25.395,65.223-9.407
	c20.498,16.073,23.818,46.197,6.467,65.896c-13.643,15.488-20.311,32.999-19.44,53.53c0.188,4.446,0.051,8.904,0.055,13.357
	c0.021,22.357,17.742,40.132,40.175,40.235c12.496,0.06,24.998,0.227,37.487-0.07c4.545-0.107,6.423,0.842,6.966,5.837
	c1.42,13.1,3.611,26.117,5.557,39.586C3682.725-205.218,3612.89-205.218,3542.152-205.218z"/>
<path opacity="0.32" fill="#B3C99F" enable-background="new    " d="M3777.105-250.812c15.646,0.892,30.174-1.226,43.867-7.434
	c26.219-11.889,43.317-31.804,51.678-59.354c0.563-1.857,2.306-3.831,4.032-4.764c3.636-1.961,7.624-3.267,11.472-4.835
	c0.393-0.16,0.803-0.271,1.955-0.659c-0.729,3.941-1.228,7.514-2.063,11.006c-11.514,48.082-55.39,82.106-104.758,81.433
	c-3.282-0.045-4.56-0.955-4.688-4.298C3778.465-243.257,3777.681-246.771,3777.105-250.812z"/>
<text transform="matrix(0.9254 -0.3791 0.3791 0.9254 3743.0449 -309.0229)" opacity="0.32" fill="#B3C99F" enable-background="new    " font-family="'Bebas'" font-size="32.9874">COMPLETE</text>
<rect x="3563.734" y="-121.365" fill="none" width="196.418" height="89.865"/>
<text transform="matrix(1 0 0 1 3563.7354 -49.1621)" fill="#FFFFFF" font-family="'Bebas'" font-size="81.037">100%</text>
<path fill="#138899" d="M4296.624-142.935c-94.608,0-188.841,0-283.606,0c1.726-12.32,3.404-24.395,5.107-36.464
	c1.531-10.837,3.322-21.643,4.571-32.513c1.167-10.163,9.058-19.245,21.075-18.771c15.912,0.629,31.866,0.184,47.804,0.146
	c15.179-0.037,28.102-12.604,28.097-27.722c-0.004-11.596,0.221-23.286-1.121-34.764c-1.359-11.614-7.602-21.399-15.311-30.177
	c-25.537-29.079-24.828-70.669,1.588-97.423c26.787-27.132,70.155-28.075,97.983-2.131c27.937,26.042,30.207,69.457,4.817,98.34
	c-11.949,13.592-18.508,28.857-17.584,47.149c0.311,6.126,0.037,12.281,0.063,18.424c0.062,15.402,12.793,28.256,28.104,28.297
	c16.435,0.044,32.867-0.011,49.304,0.021c9.579,0.017,17.629,6.301,19.04,15.601c3.533,23.281,6.734,46.614,10.059,69.927
	C4296.686-144.509,4296.624-144.003,4296.624-142.935z M4033.229-160.492c81.736,0,162.431,0,243.465,0
	c-2.248-15.563-4.779-30.605-6.422-45.742c-0.627-5.771-2.797-6.869-8.049-6.744c-14.43,0.342-28.877,0.148-43.315,0.081
	c-25.921-0.12-46.397-20.658-46.422-46.492c-0.005-5.146,0.153-10.297-0.063-15.435c-1.002-23.724,6.701-43.958,22.465-61.854
	c20.051-22.762,16.213-57.569-7.473-76.144c-23.559-18.474-57.801-13.535-75.363,10.87c-14.666,20.374-12.918,47.065,4.604,67.362
	c9.628,11.149,17.183,23.587,19.168,38.164c1.688,12.412,1.369,25.135,1.437,37.723c0.127,24.921-20.558,45.619-45.487,45.811
	c-11.783,0.089-23.567,0.027-35.352,0.032c-5.114,0.002-10.229,0.001-15.729,0.001
	C4038.171-195.181,4035.727-178.022,4033.229-160.492z"/>
<path fill="#536566" d="M4014.496-107.995c0-5.666,0-11.081,0-16.74c93.641,0,187.004,0,280.762,0c0,5.325,0,10.716,0,16.74
	C4201.99-107.995,4108.475-107.995,4014.496-107.995z"/>
<path fill="#FFFFFF" d="M4033.229-160.492c2.498-17.53,4.942-34.688,7.461-52.366c5.502,0,10.616,0.001,15.73-0.001
	c11.783-0.005,23.566,0.057,35.352-0.032c24.931-0.191,45.613-20.89,45.486-45.811c-0.066-12.588,0.254-25.311-1.436-37.723
	c-1.985-14.577-9.541-27.015-19.168-38.164c-17.523-20.297-19.271-46.988-4.605-67.362c17.563-24.405,51.807-29.344,75.363-10.87
	c23.686,18.573,27.522,53.381,7.473,76.144c-15.764,17.896-23.467,38.131-22.464,61.854c0.217,5.138,0.06,10.289,0.063,15.436
	c0.023,25.834,20.5,46.372,46.422,46.492c14.438,0.067,28.887,0.261,43.315-0.081c5.252-0.125,7.422,0.973,8.049,6.744
	c1.642,15.137,4.174,30.179,6.422,45.742C4195.658-160.492,4114.965-160.492,4033.229-160.492z"/>
<rect x="3487.729" y="834.807" fill="none" width="196.418" height="89.865"/>
<text transform="matrix(1 0 0 1 3487.7275 907.0098)" fill="#FFFFFF" font-family="'Bebas'" font-size="81.037">100%</text>
<rect x="3470.416" y="919.181" fill="none" width="196.418" height="35.866"/>
<text transform="matrix(1 0 0 1 3513.7158 942.2246)" fill="#FFFFFF" font-family="'Bebas'" font-size="25.8629">COMPLETE</text>
<g>
	<g>
		<defs>
			<rect id="SVGID_3_" x="3247.732" y="500.546" width="243.11" height="180.954"/>
		</defs>
		<clipPath id="SVGID_4_">
			<use xlink:href="#SVGID_3_"  overflow="visible"/>
		</clipPath>
		<g clip-path="url(#SVGID_4_)">
			<path fill="#138899" d="M3326.814,448.836c1.127,1.011,1.953,1.834,2.901,2.523c0.144,0.104,1.254-0.519,1.22-0.628
				c-0.313-1.005-0.778-1.97-1.357-3.311c1.037-0.429,2.429-1.003,3.966-1.638c0.573,0.671,1.079,1.261,1.813,2.121
				c0.521-1.059,0.891-1.805,1.642-3.324c5.109,0.662,10.495,0.988,15.666,2.114c9.651,2.103,19.132,1.813,28.683-0.309
				c2.979-0.662,6.041-1.123,9.096-1.409c8.929-0.835,16.045,2.899,21.885,8.27c8.479,7.793,18.704,12.362,30.12,15.285
				c8.862,2.269,15.065,7.232,18.178,15.142c0.852,2.159,1.813,4.297,2.445,6.51c2.374,8.288,7.287,15.191,13.947,21.178
				c0.075,0.067,0.14,0.146,0.219,0.209c9.894,8.107,11.974,18.059,8.524,29.309c-2.666,8.69-2.313,17.304,0.063,26.048
				c1.716,6.305,2.931,12.866-0.599,19.057c-1.17,2.049-3.354,3.607-4.908,5.504c-1.105,1.354-1.641,3.153-2.924,4.313
				c-7.217,6.515-12.504,14.039-14.771,23.031c-3.156,12.497-12.389,19.132-25.578,21.979c-9.092,1.963-16.371,6.49-23.057,12.109
				c-2.787,2.343-5.787,4.516-8.911,6.484c-5.601,3.535-12.046,3.518-18.392,2.585c-8.168-1.198-16.217-3.301-24.603-2.4
				c-3.881,0.416-7.755,1.071-11.553,1.913c-11.543,2.559-21.813,0.527-30.076-7.249c-8.465-7.968-18.942-12.365-30.413-15.371
				c-8.769-2.299-14.745-7.295-17.652-15.161c-1.14-3.076-2.423-6.112-3.445-9.221c-2.363-7.191-7.107-13.015-12.932-18.152
				c-9.012-7.949-12.787-17.227-9.105-28.36c3.227-9.753,2.809-19.397-0.129-29.107c-0.666-2.209-0.854-4.551-1.093-6.845
				c-0.727-6.955,2.088-12.977,7.38-17.683c9.209-8.196,15.299-17.786,18.791-28.957c1.033-3.313,2.945-6.686,5.42-9.284
				c3.303-3.471,7.666-5.466,12.861-7.035c10.768-3.252,21.67-6.907,29.639-15.021
				C3321.828,451.961,3324.607,450.444,3326.814,448.836z M3355.54,473.124c0.091,0.574,0.221,1.396,0.353,2.225
				c2.129-1.029,3.943-1.907,5.709-2.762c-1.246-0.697-2.338-1.308-2.713-1.517c0-2.337,0.097-3.903-0.07-5.442
				c-0.039-0.354-1.014-0.893-1.493-0.835c-0.369,0.044-0.902,0.888-0.901,1.375c0.004,1.309,0.258,2.616,0.409,3.926
				c-1.563,2.289-6.096,1.063-6.549,5.583C3352.494,474.604,3354.039,473.854,3355.54,473.124z M3353.114,485.883
				c0.092-1.742,0.073-2.846,0.232-3.923c0.115-0.779,0.468-1.527,0.716-2.288c0.623,0.438,1.248,0.876,2.412,1.691
				c0.313-1.07,0.994-2.296,0.904-3.467c-0.062-0.777-1.22-1.479-1.886-2.214c-0.231,0.149-0.463,0.302-0.694,0.449
				c0,0.738,0,1.478,0,2.974c-0.816-1.425-1.256-2.192-1.977-3.451c-0.479,0.875-1.092,1.574-0.946,1.79
				c1.41,2.088,0.381,2.579-1.638,2.9c-0.639,0.103-1.117,1.155-1.668,1.774c0.185,0.185,0.367,0.37,0.554,0.556
				c0.685-0.049,1.368-0.098,2.08-0.146c-0.476,0.946-0.858,1.715-1.242,2.479C3350.895,485.268,3351.824,485.526,3353.114,485.883z
				 M3320.001,472.933c-1.155,1.415-2.319,2.844-3.701,4.536c2.04,0.586,3.531,1.016,5.023,1.442
				c0.448-0.159,0.898-0.319,1.349-0.479C3316.534,477.434,3322.902,474.871,3320.001,472.933z M3308.352,481.354
				c0.242-0.033,0.484-0.068,0.729-0.104c0.26-1.141,0.521-2.279,0.916-4.006c-1.873,0.133-3.396,0.023-4.741,0.45
				c-0.486,0.153-0.547,1.584-0.802,2.432c0.239,0.079,0.479,0.158,0.721,0.237c0.515-0.764,1.027-1.524,1.619-2.399
				C3307.39,479.258,3307.872,480.307,3308.352,481.354z M3355.686,461.813c-0.234-0.229-0.471-0.454-0.705-0.683
				c-0.721,0.64-2.157,1.479-2.037,1.884c0.493,1.678,1.461,3.223,2.254,4.813c0.162-0.136,0.325-0.271,0.488-0.405
				C3355.686,465.552,3355.686,463.681,3355.686,461.813z M3435.258,600.849c1.465-1.816,2.662-3.305,4.254-5.281
				c-2.404,0.88-3.883,1.419-5.545,2.025C3434.337,598.527,3434.719,599.493,3435.258,600.849z M3460.785,568.934
				c-1.23-1.869-2.215-3.419-4.249-2.273c-0.561,0.314-0.477,1.715-0.675,2.557C3457.867,569.101,3459.146,569.028,3460.785,568.934
				z M3351.63,465.354c-0.33-0.765-0.632-1.469-0.781-1.813c-1.243,0.325-2.4,0.298-2.847,0.832
				c-0.518,0.619-0.408,1.73-0.673,3.177C3349.247,466.57,3350.326,466.021,3351.63,465.354z M3345.679,463.913
				c-1.801,0.415-3.118,0.719-4.624,1.065c0.196,0.973,0.438,2.179,0.848,4.222C3343.385,467.123,3344.391,465.718,3345.679,463.913
				z M3296.753,487.441c-0.432,0.233-0.862,0.47-1.293,0.703c0.601,1.177,1.2,2.352,1.802,3.526
				c0.527-0.323,1.534-0.891,1.512-0.935C3298.165,489.604,3297.45,488.528,3296.753,487.441z M3338.472,597.325
				c0.408,0.146,0.815,0.291,1.226,0.438c0.443-0.891,1.236-1.784,1.232-2.674c-0.004-0.849-0.841-1.695-1.311-2.541
				c-0.205,0.101-0.409,0.197-0.614,0.297C3338.827,594.339,3338.65,595.832,3338.472,597.325z M3314.609,468.448
				c1.393-2.15,1.219-3.974-0.535-5.367c-0.316,0.085-0.635,0.169-0.951,0.252C3313.617,465.039,3314.113,466.743,3314.609,468.448z
				 M3306.4,578.301c-0.056-0.233-0.109-0.469-0.164-0.705c-1.033,0.42-2.59,0.595-2.955,1.328
				c-0.384,0.769,0.373,2.076,0.651,3.224C3304.92,580.607,3305.662,579.454,3306.4,578.301z M3312.17,480.691
				c0.354-0.107,0.708-0.216,1.061-0.322c-0.299-1.307-0.601-2.612-1.032-4.49C3309.528,478.454,3310.504,479.646,3312.17,480.691z"
				/>
			<path fill="#138899" d="M3362.629,432.915c-1.503,0.729-3.046,1.479-5.257,2.554c0.455-4.52,4.985-3.294,6.549-5.584
				c-0.153-1.309-0.403-2.616-0.409-3.925c-0.001-0.487,0.533-1.331,0.902-1.376c0.479-0.057,1.452,0.479,1.492,0.835
				c0.167,1.54,0.07,3.106,0.07,5.444c0.375,0.208,1.467,0.817,2.711,1.515c-1.765,0.854-3.577,1.732-5.707,2.762
				C3362.85,434.313,3362.721,433.489,3362.629,432.915z"/>
			<path fill="#138899" d="M3360.203,445.674c-1.29-0.355-2.221-0.614-3.151-0.872c0.384-0.767,0.768-1.532,1.242-2.481
				c-0.711,0.051-1.396,0.1-2.081,0.147c-0.184-0.186-0.367-0.371-0.552-0.556c0.55-0.619,1.028-1.673,1.667-1.775
				c2.019-0.321,3.047-0.813,1.637-2.899c-0.145-0.218,0.467-0.915,0.947-1.791c0.721,1.259,1.16,2.027,1.977,3.452
				c0-1.495,0-2.234,0-2.974c0.231-0.148,0.463-0.3,0.692-0.448c0.669,0.734,1.827,1.435,1.888,2.214
				c0.091,1.17-0.591,2.396-0.906,3.467c-1.164-0.817-1.787-1.256-2.412-1.693c-0.244,0.763-0.598,1.509-0.714,2.288
				C3360.277,442.829,3360.295,443.932,3360.203,445.674z"/>
			<path fill="#138899" d="M3327.09,432.723c2.902,1.94-3.467,4.503,2.671,5.501c-0.448,0.16-0.898,0.32-1.349,0.479
				c-1.492-0.428-2.984-0.856-5.022-1.442C3324.771,435.566,3325.934,434.139,3327.09,432.723z"/>
			<path fill="#138899" d="M3315.441,441.146c-0.48-1.049-0.963-2.097-1.56-3.393c-0.591,0.875-1.104,1.637-1.62,2.398
				c-0.239-0.079-0.48-0.158-0.722-0.236c0.256-0.848,0.315-2.277,0.805-2.432c1.344-0.427,2.865-0.317,4.74-0.45
				c-0.396,1.726-0.655,2.865-0.918,4.006C3315.926,441.075,3315.682,441.11,3315.441,441.146z"/>
			<path fill="#138899" d="M3362.773,421.604c0,1.869,0,3.74,0,5.609c-0.162,0.135-0.326,0.271-0.488,0.406
				c-0.792-1.593-1.76-3.139-2.254-4.813c-0.121-0.403,1.316-1.245,2.037-1.885C3362.305,421.148,3362.539,421.376,3362.773,421.604
				z"/>
			<path fill="#138899" d="M3442.347,560.641c-0.538-1.354-0.921-2.32-1.29-3.256c1.66-0.607,3.139-1.146,5.543-2.026
				C3445.009,557.335,3443.811,558.823,3442.347,560.641z"/>
			<path fill="#138899" d="M3467.875,528.725c-1.641,0.097-2.918,0.168-4.925,0.282c0.198-0.842,0.114-2.241,0.675-2.556
				C3465.66,525.306,3466.645,526.856,3467.875,528.725z"/>
			<path fill="#138899" d="M3358.719,425.145c-1.305,0.668-2.381,1.219-4.299,2.196c0.262-1.444,0.154-2.558,0.671-3.176
				c0.445-0.535,1.604-0.506,2.847-0.833C3358.087,423.677,3358.389,424.38,3358.719,425.145z"/>
			<path fill="#138899" d="M3352.768,423.705c-1.289,1.805-2.291,3.208-3.775,5.286c-0.41-2.041-0.65-3.248-0.848-4.222
				C3349.648,424.423,3350.967,424.12,3352.768,423.705z"/>
			<path fill="#138899" d="M3303.841,447.233c0.697,1.086,1.413,2.163,2.022,3.295c0.021,0.044-0.985,0.611-1.514,0.935
				c-0.602-1.175-1.201-2.35-1.802-3.525C3302.979,447.702,3303.41,447.468,3303.841,447.233z"/>
			<path fill="#138899" d="M3345.563,557.117c0.178-1.494,0.354-2.988,0.532-4.48c0.204-0.1,0.409-0.197,0.613-0.298
				c0.471,0.849,1.306,1.692,1.31,2.542c0.007,0.889-0.787,1.782-1.231,2.673C3346.377,557.408,3345.969,557.264,3345.563,557.117z"
				/>
			<path fill="#138899" d="M3321.698,428.239c-0.497-1.704-0.991-3.409-1.486-5.114c0.317-0.084,0.635-0.167,0.952-0.252
				C3322.916,424.267,3323.091,426.089,3321.698,428.239z"/>
			<path fill="#138899" d="M3313.49,538.092c-0.74,1.154-1.481,2.308-2.469,3.846c-0.276-1.146-1.035-2.453-0.651-3.223
				c0.366-0.734,1.923-0.907,2.954-1.327C3313.38,537.622,3313.436,537.857,3313.49,538.092z"/>
			<path fill="#138899" d="M3319.259,440.484c-1.667-1.047-2.644-2.238,0.027-4.814c0.435,1.879,0.733,3.186,1.034,4.49
				C3319.967,440.268,3319.613,440.375,3319.259,440.484z"/>
		</g>
	</g>
</g>
<path fill="#138899" d="M3492.102,462.023c-81.877,0-163.428,0-245.438,0c1.492-10.662,2.945-21.111,4.42-31.558
	c1.325-9.379,2.876-18.729,3.956-28.138c1.01-8.795,7.839-16.655,18.239-16.244c13.771,0.544,27.577,0.159,41.37,0.126
	c13.136-0.032,24.318-10.907,24.314-23.991c-0.003-10.035,0.191-20.152-0.971-30.085c-1.178-10.052-6.577-18.52-13.25-26.116
	c-22.1-25.165-21.486-61.158,1.373-84.312c23.186-23.48,60.716-24.297,84.8-1.845c24.177,22.538,26.143,60.11,4.169,85.105
	c-10.34,11.763-16.018,24.974-15.217,40.804c0.268,5.302,0.031,10.629,0.054,15.944c0.054,13.33,11.071,24.453,24.323,24.489
	c14.221,0.038,28.444-0.01,42.668,0.018c8.289,0.015,15.256,5.453,16.479,13.5c3.058,20.148,5.828,40.342,8.703,60.518
	C3492.154,460.661,3492.102,461.099,3492.102,462.023z M3264.152,446.828c70.736,0,140.57,0,210.699,0
	c-1.944-13.469-4.137-26.486-5.558-39.586c-0.542-4.995-2.42-5.944-6.965-5.837c-12.489,0.296-24.992,0.129-37.487,0.069
	c-22.433-0.104-40.152-17.877-40.175-40.234c-0.004-4.453,0.133-8.911-0.055-13.357c-0.869-20.531,5.799-38.042,19.44-53.53
	c17.353-19.698,14.031-49.822-6.467-65.896c-20.389-15.987-50.021-11.714-65.223,9.407c-12.691,17.632-11.18,40.73,3.986,58.297
	c8.332,9.649,14.869,20.413,16.588,33.028c1.463,10.741,1.186,21.752,1.241,32.646c0.111,21.567-17.789,39.48-39.364,39.646
	c-10.197,0.076-20.396,0.023-30.595,0.027c-4.426,0.002-8.852,0.001-13.612,0.001
	C3268.43,416.809,3266.313,431.657,3264.152,446.828z"/>
<path opacity="0.32" fill="#B3C99F" enable-background="new    " d="M3423.854,319.576c4.758-7.288,9.241-14.253,13.861-21.128
	c0.651-0.971,1.859-1.742,2.978-2.206c56.429-23.428,112.876-46.813,169.323-70.192c0.254-0.104,0.559-0.081,1.525-0.206
	c9.556,23.046,19.182,46.257,28.958,69.83c-9.065,3.788-17.889,7.503-26.731,11.166c-50.354,20.855-100.703,41.717-151.092,62.489
	c-2.312,0.953-4.958,1.477-7.458,1.513c-10.998,0.161-21.999,0.07-32.999,0.07c-0.079-0.354-0.16-0.708-0.238-1.063
	c66.127-27.398,132.254-54.798,198.707-82.332c-5.848-14.11-11.591-27.967-17.496-42.214
	C3543.159,270.166,3483.486,294.88,3423.854,319.576z"/>
<path d="M3247.941,492.261c0-4.902,0-9.59,0-14.486c81.039,0,161.836,0,242.977,0c0,4.607,0,9.272,0,14.486
	C3410.203,492.261,3329.271,492.261,3247.941,492.261z"/>
<path opacity="0.32" fill="#B3C99F" enable-background="new    " d="M3443.061,243.849c-1.93-4.879-3.765-9.52-5.616-14.204
	c34.504-33.037,96.276-34.96,133.291-3.876c-4.873,2.044-9.584,4.129-14.396,5.947c-1.009,0.383-2.563,0.123-3.57-0.404
	c-39.094-20.462-75.383-16.249-108.967,12.233C3443.699,243.634,3443.54,243.656,3443.061,243.849z"/>
<path fill="#FFFFFF" d="M3264.152,446.828c2.16-15.171,4.277-30.021,6.457-45.318c4.762,0,9.188,0.001,13.613-0.001
	c10.197-0.004,20.396,0.049,30.594-0.028c21.576-0.164,39.477-18.078,39.365-39.646c-0.058-10.894,0.221-21.904-1.242-32.646
	c-1.719-12.615-8.256-23.379-16.588-33.028c-15.165-17.565-16.678-40.665-3.986-58.297c15.2-21.121,44.834-25.396,65.223-9.407
	c20.498,16.073,23.818,46.197,6.467,65.896c-13.643,15.488-20.311,32.999-19.44,53.53c0.188,4.446,0.051,8.904,0.055,13.357
	c0.021,22.357,17.742,40.132,40.175,40.234c12.496,0.06,24.998,0.227,37.487-0.069c4.545-0.107,6.423,0.842,6.966,5.837
	c1.42,13.1,3.611,26.117,5.557,39.586C3404.725,446.828,3334.89,446.828,3264.152,446.828z"/>
<path opacity="0.32" fill="#B3C99F" enable-background="new    " d="M3499.105,401.234c15.646,0.892,30.174-1.227,43.867-7.435
	c26.219-11.889,43.317-31.804,51.678-59.354c0.563-1.857,2.306-3.831,4.032-4.764c3.636-1.961,7.624-3.267,11.472-4.835
	c0.393-0.16,0.803-0.272,1.955-0.659c-0.729,3.941-1.228,7.514-2.063,11.006c-11.514,48.082-55.39,82.105-104.758,81.433
	c-3.282-0.045-4.56-0.955-4.688-4.298C3500.465,408.789,3499.681,405.275,3499.105,401.234z"/>
<text transform="matrix(0.9254 -0.3791 0.3791 0.9254 3465.0449 343.0215)" opacity="0.32" fill="#B3C99F" enable-background="new    " font-family="'Bebas'" font-size="32.9874">COMPLETE</text>
<rect x="3285.734" y="515.306" fill="none" width="196.418" height="89.865"/>
<text transform="matrix(1 0 0 1 3285.7354 587.5088)" fill="#FFFFFF" font-family="'Bebas'" font-size="81.037">100%</text>
<rect x="3268.424" y="599.68" fill="none" width="196.418" height="35.866"/>
<text transform="matrix(1 0 0 1 3311.7236 622.7236)" fill="#FFFFFF" font-family="'Bebas'" font-size="25.8629">COMPLETE</text>
<g>
	<g>
		<defs>
			<path id="SVGID_5_" d="M4183.264-450.927c2.467,1.644,60.819,31.3,50.828,90.214c-7.658,45.15-32.776,62.622-34.422,84.807
				c-1.643,22.187,1.646,25.604,1.646,25.604s2.224,7.723,7.894,9.513c10.91,3.446,26.646,2.685,45.545,2.685
				c18.896,0,28.76,1.104,35.334,7.678c6.571,6.573,14.789,79.422,14.789,79.422l124.896-10.683c0,0,79.704-73.133,82.991-84.636
				c3.287-11.502-26.295-168.446-26.295-168.446s-50.942-78.062-53.409-78.062c-2.465,0-125.719,1.645-125.719,1.645
				L4183.264-450.927z"/>
		</defs>
		<clipPath id="SVGID_6_">
			<use xlink:href="#SVGID_5_"  overflow="visible"/>
		</clipPath>
		<g clip-path="url(#SVGID_6_)">
			<g>
				<path fill="#C5D92F" d="M4434.395-284.267c-0.621-1.566-1.063-2.683-1.492-3.763c1.922-0.703,3.629-1.326,6.406-2.343
					C4437.471-288.087,4436.086-286.367,4434.395-284.267z"/>
				<path fill="#C5D92F" d="M4463.893-321.146c-1.896,0.111-3.373,0.194-5.69,0.326c0.229-0.973,0.133-2.589,0.78-2.953
					C4461.334-325.097,4462.469-323.305,4463.893-321.146z"/>
				<path fill="#C5D92F" d="M4322.559-288.338c0.205-1.727,0.41-3.453,0.617-5.178c0.234-0.115,0.473-0.229,0.709-0.344
					c0.543,0.979,1.508,1.955,1.513,2.938c0.006,1.026-0.909,2.059-1.424,3.088C4323.502-288.002,4323.029-288.169,4322.559-288.338
					z"/>
				<path fill="#C5D92F" d="M4285.5-310.322c-0.855,1.334-1.712,2.665-2.854,4.443c-0.318-1.324-1.195-2.835-0.752-3.724
					c0.424-0.849,2.223-1.048,3.414-1.533C4285.373-310.865,4285.438-310.593,4285.5-310.322z"/>
				<path fill="#C5D92F" d="M4484.633-286.064c-2.746-10.933-3.154-21.701-0.073-32.566c3.985-14.065,1.582-26.506-9.851-36.642
					c-0.092-0.078-0.166-0.178-0.252-0.262c-7.696-7.484-13.373-16.115-16.117-26.477c-0.73-2.767-1.842-5.44-2.826-8.14
					c-3.595-9.887-10.763-16.095-21.004-18.929c-13.191-3.655-25.008-9.368-34.804-19.111c-6.748-6.714-14.972-11.382-25.289-10.339
					c-3.528,0.359-7.065,0.936-10.51,1.762c-11.034,2.654-21.99,3.015-33.144,0.385c-5.973-1.407-12.196-1.815-18.101-2.643
					l-3.817,1.726c-0.059-0.074-0.115-0.146-0.176-0.222c-1.774,0.794-3.383,1.513-4.582,2.047c0.039,0.099,0.074,0.18,0.109,0.275
					l-3.303,1.493c-2.551,2.012-5.763,3.908-8.135,6.521c-9.207,10.145-21.806,14.714-34.246,18.78
					c-6.004,1.963-11.045,4.457-14.861,8.796c-2.859,3.25-5.068,7.466-6.264,11.608c-4.035,13.965-11.072,25.955-21.713,36.203
					c-6.114,5.883-9.365,13.412-8.527,22.107c0.277,2.867,0.493,5.796,1.264,8.557c3.395,12.14,3.875,24.199,0.148,36.392
					c-4.254,13.922,0.109,25.52,10.521,35.459c6.729,6.424,12.211,13.704,14.941,22.695c1.184,3.886,2.665,7.682,3.98,11.528
					c3.359,9.835,10.267,16.081,20.398,18.955c13.253,3.759,25.359,9.256,35.143,19.219c9.547,9.722,21.414,12.26,34.754,9.062
					c4.388-1.053,8.863-1.872,13.349-2.392c9.688-1.125,18.989,1.503,28.429,3.001c7.332,1.167,14.778,1.188,21.25-3.231
					c3.61-2.461,7.078-5.179,10.299-8.106c7.725-7.024,16.136-12.688,26.641-15.14c15.241-3.559,25.909-11.854,29.557-27.479
					c2.621-11.241,8.73-20.65,17.068-28.796c1.484-1.447,2.102-3.697,3.377-5.394c1.797-2.368,4.322-4.319,5.673-6.881
					C4488.02-269.978,4486.615-278.183,4484.633-286.064z M4286.175-415.895l-1.013,0.633c-0.029-0.106-0.059-0.213-0.086-0.318
					C4285.441-415.684,4285.811-415.79,4286.175-415.895z"/>
			</g>
			<rect x="4256.896" y="-359.184" fill="none" width="226.961" height="103.84"/>
			<text transform="matrix(1 0 0 1 4256.8965 -275.7529)" fill="#FFFFFF" font-family="'Bebas'" font-size="93.6385">100%</text>
			<rect x="4234.773" y="-252.062" fill="none" width="226.961" height="41.443"/>
			<text transform="matrix(1 0 0 1 4284.8066 -225.4346)" fill="#FFFFFF" font-family="'Bebas'" font-size="29.8846">COMPLETE</text>
		</g>
	</g>
</g>
</svg>
