<?xml version="1.0" encoding="utf-8"?>
<!-- Generator: Adobe Illustrator 16.0.0, SVG Export Plug-In . SVG Version: 6.00 Build 0)  -->
<!DOCTYPE svg PUBLIC "-//W3C//DTD SVG 1.1//EN" "http://www.w3.org/Graphics/SVG/1.1/DTD/svg11.dtd">
<svg version="1.1" id="Capa_1" xmlns="http://www.w3.org/2000/svg" xmlns:xlink="http://www.w3.org/1999/xlink" x="0px" y="0px"
	 width="800px" height="800px" viewBox="4.607 -32.393 800 800" enable-background="new 4.607 -32.393 800 800"
	 xml:space="preserve">
<path fill="#138899" d="M603.807,446.267H79.421V102.821h596.172v199.383h25.858l-0.063-210.325
	c-0.63-8.365-7.548-14.98-16.078-14.98H69.694c-8.521,0-15.439,6.615-16.068,14.98L53.5,507.832c0,8.941,7.252,16.194,16.194,16.194
	h534.112V446.267z"/>
<path fill="#138899" d="M481.188,601.793c-25.923-6.483-32.396-25.924-32.396-51.845v-6.482h-71.284h-71.286v6.482
	c0,25.921-6.475,45.361-32.397,51.845c-6.287,1.566-6.479,12.956,0,12.956h103.684h103.681
	C487.671,614.749,487.478,603.359,481.188,601.793z"/>
<rect x="145.907" y="168.731" fill="#C5D92F" width="43.575" height="43.369"/>
<g id="Task_list_2_">
	<path fill="#138899" d="M142.24,311.354h48.127c4.437,0,8.021-3.593,8.021-8.024v-48.129c0-4.432-3.585-8.023-8.021-8.023H142.24
		c-4.436,0-8.022,3.592-8.022,8.023v48.129C134.218,307.762,137.805,311.354,142.24,311.354z M150.258,263.224h32.088v32.085
		h-32.088V263.224z"/>
	<path fill="#138899" d="M142.24,223.116h48.127c4.437,0,8.021-3.589,8.021-8.021v-48.136c0-4.428-3.585-8.02-8.021-8.02h-3.878
		l1.763-7.051c0.534-2.145-0.768-4.322-2.922-4.861c-2.141-0.561-4.324,0.77-4.86,2.917l-2.253,8.995H142.24
		c-4.436,0-8.022,3.592-8.022,8.02v48.128C134.218,219.521,137.805,223.116,142.24,223.116z M150.258,174.985h23.937l-3.74,14.939
		l-5.927-8.188c-1.309-1.804-3.81-2.194-5.6-0.899c-1.795,1.298-2.206,3.81-0.901,5.6l10.043,13.885
		c0.199,0.273,0.491,0.417,0.737,0.626c0.517,0.956,1.392,1.71,2.526,1.989c0.321,0.083,0.652,0.123,0.974,0.123
		c1.8,0,3.43-1.212,3.892-3.033l6.141-24.537v31.585H150.25v-32.089H150.258z"/>
	<path fill="#138899" d="M142.24,399.593h48.127c4.437,0,8.021-3.593,8.021-8.021v-48.138c0-4.432-3.585-8.02-8.021-8.02H142.24
		c-4.436,0-8.022,3.588-8.022,8.02v48.129C134.218,395.995,137.805,399.593,142.24,399.593z M150.258,351.456h32.088v32.09h-32.088
		V351.456z"/>
	<path fill="#138899" d="M241.659,199.049h340.97c4.436,0,8.022-3.589,8.022-8.021c0-4.433-3.587-8.022-8.022-8.022h-340.97
		c-4.436,0-8.021,3.59-8.021,8.022C233.638,195.46,237.224,199.049,241.659,199.049z"/>
	<path fill="#138899" d="M582.107,271.244H241.689c-4.437,0-8.021,3.589-8.021,8.021c0,4.432,3.585,8.022,8.021,8.022h340.418
		c4.437,0,8.022-3.591,8.022-8.022C590.13,274.833,586.544,271.244,582.107,271.244z"/>
	<path fill="#138899" d="M241.659,375.524h340.247c4.436,0,8.022-3.589,8.022-8.021s-3.587-8.021-8.022-8.021H241.659
		c-4.436,0-8.021,3.589-8.021,8.021S237.224,375.524,241.659,375.524z"/>
</g>
<rect x="619.375" y="331.486" fill="#FFFFFF" width="145.572" height="258.697"/>
<g id="Your_Icon">
	<path fill="#138899" d="M745.965,313.569H639.713c-13.313,0-24.146,10.825-24.146,24.144v243.461
		c0,13.319,10.832,24.146,24.146,24.146h106.252c13.313,0,24.146-10.827,24.146-24.146V337.713
		C770.105,324.395,759.275,313.569,745.965,313.569z M679.355,320.219h26.963c1.181,0,2.142,0.959,2.142,2.143
		s-0.961,2.143-2.142,2.143h-26.963c-1.183,0-2.143-0.959-2.143-2.143S678.173,320.219,679.355,320.219z M709.246,591.53
		c0,2.622-2.124,4.748-4.75,4.748h-23.315c-2.624,0-4.751-2.126-4.751-4.748v-2.212c0-2.621,2.127-4.749,4.751-4.749h23.315
		c2.626,0,4.75,2.128,4.75,4.749V591.53z M761.268,580.067H624.408V339.511h136.859V580.067z"/>
</g>
<rect x="645.926" y="395.771" fill="#C5D92F" width="16.532" height="17.976"/>
<rect x="645.664" y="476.992" fill="#C5D92F" width="18.108" height="16.664"/>
<rect x="645.795" y="436.577" fill="#C5D92F" width="16.533" height="17.715"/>
<g>
	<path fill="#138899" d="M643.528,458.478h20.688c1.906,0,3.446-1.545,3.446-3.45v-20.686c0-1.905-1.54-3.449-3.446-3.449h-20.688
		c-1.906,0-3.447,1.544-3.447,3.449v20.686C640.081,456.933,641.622,458.478,643.528,458.478z M646.974,437.789h13.794v13.792
		h-13.794V437.789z"/>
	<path fill="#138899" d="M643.528,417.741h20.688c1.906,0,3.446-1.543,3.446-3.447v-20.69c0-1.901-1.54-3.448-3.446-3.448h-1.666
		l0.756-3.03c0.229-0.922-0.329-1.857-1.256-2.09c-0.921-0.24-1.859,0.331-2.091,1.253l-0.967,3.867h-15.464
		c-1.906,0-3.447,1.547-3.447,3.448v20.688C640.081,416.195,641.622,417.741,643.528,417.741z M646.974,397.054h10.29l-1.608,6.421
		l-2.549-3.521c-0.562-0.773-1.635-0.94-2.405-0.385c-0.772,0.557-0.949,1.636-0.389,2.406l4.318,5.968
		c0.085,0.118,0.21,0.18,0.316,0.269c0.222,0.411,0.598,0.734,1.087,0.855c0.138,0.036,0.281,0.054,0.417,0.054
		c0.772,0,1.477-0.521,1.673-1.304l2.641-10.547v13.575h-13.793v-13.792H646.974z"/>
	<path fill="#138899" d="M643.528,499.213h20.688c1.906,0,3.446-1.543,3.446-3.447v-20.689c0-1.906-1.54-3.448-3.446-3.448h-20.688
		c-1.906,0-3.447,1.542-3.447,3.448v20.688C640.081,497.668,641.622,499.213,643.528,499.213z M646.974,478.525h13.794v13.793
		h-13.794V478.525z"/>
	<path fill="#138899" d="M681.454,407.396h58.776c1.905,0,3.446-1.542,3.446-3.447s-1.541-3.448-3.446-3.448h-58.776
		c-1.906,0-3.447,1.543-3.447,3.448S679.548,407.396,681.454,407.396z"/>
	<path fill="#138899" d="M739.982,441.237h-58.515c-1.906,0-3.447,1.542-3.447,3.447s1.541,3.449,3.447,3.449h58.515
		c1.905,0,3.448-1.544,3.448-3.449S741.888,441.237,739.982,441.237z"/>
	<path fill="#138899" d="M681.454,488.869h57.937c1.907,0,3.448-1.543,3.448-3.447s-1.541-3.449-3.448-3.449h-57.937
		c-1.906,0-3.447,1.545-3.447,3.449S679.548,488.869,681.454,488.869z"/>
</g>
</svg>
