<?xml version="1.0" encoding="utf-8"?>
<!-- Generator: Adobe Illustrator 16.0.0, SVG Export Plug-In . SVG Version: 6.00 Build 0)  -->
<!DOCTYPE svg PUBLIC "-//W3C//DTD SVG 1.1//EN" "http://www.w3.org/Graphics/SVG/1.1/DTD/svg11.dtd">
<svg version="1.1" id="Capa_1" xmlns="http://www.w3.org/2000/svg" xmlns:xlink="http://www.w3.org/1999/xlink" x="0px" y="0px"
	 width="800px" height="800px" viewBox="0 0 800 800" enable-background="new 0 0 800 800" xml:space="preserve">
<path fill="#138899" d="M497.432,540.765c5.434-16.214,2.154-30.552-13.432-42.237c-0.123-0.092-0.225-0.203-0.344-0.302
	c-4.505-3.703-8.497-7.653-11.889-11.897H146.77c-4.459,5.779-9.738,11.177-15.917,16.206c-8.335,6.784-12.768,15.463-11.625,25.485
	c0.377,3.304,0.673,6.679,1.721,9.861c4.627,13.996,5.285,27.893,0.203,41.946c-5.8,16.049,0.151,29.419,14.345,40.875
	c9.176,7.403,16.648,15.797,20.372,26.159c1.613,4.481,3.632,8.854,5.426,13.287c4.583,11.338,13.997,18.539,27.813,21.853
	c18.067,4.331,34.576,10.67,47.911,22.151c13.014,11.204,29.197,14.131,47.385,10.444c5.978-1.211,12.081-2.155,18.195-2.754
	c13.21-1.299,25.889,1.73,38.756,3.457c9.998,1.343,20.15,1.369,28.974-3.725c4.921-2.838,9.646-5.969,14.037-9.347
	c10.532-8.096,22-14.624,36.322-17.45c20.777-4.103,35.32-13.664,40.293-31.675c3.576-12.957,11.904-23.803,23.271-33.191
	c2.023-1.671,2.863-4.264,4.605-6.218c2.447-2.729,5.891-4.978,7.73-7.929c5.561-8.92,3.648-18.378,0.947-27.462
	C493.787,565.7,493.232,553.286,497.432,540.765z M210.989,600.237c-0.44-1.654-1.631-3.54-1.028-4.646
	c0.577-1.06,3.028-1.309,4.655-1.916c0.088,0.343,0.174,0.681,0.258,1.019C213.711,596.356,212.543,598.018,210.989,600.237z
	 M222.155,542.288c-0.436-1.65-1.632-3.534-1.027-4.644c0.577-1.058,3.031-1.308,4.654-1.912c0.089,0.337,0.177,0.678,0.261,1.014
	C224.879,538.411,223.709,540.07,222.155,542.288z M267.328,622.742c-0.644-0.213-1.287-0.421-1.93-0.632
	c0.282-2.152,0.559-4.304,0.841-6.457c0.324-0.144,0.645-0.284,0.968-0.427c0.739,1.218,2.056,2.438,2.064,3.662
	C269.276,620.171,268.028,621.459,267.328,622.742z M278.498,564.794c-0.647-0.208-1.29-0.418-1.931-0.627
	c0.281-2.153,0.561-4.309,0.841-6.459c0.322-0.144,0.644-0.286,0.967-0.429c0.739,1.224,2.056,2.439,2.062,3.664
	C280.447,562.223,279.198,563.511,278.498,564.794z M417.871,627.189c-0.852-1.953-1.451-3.346-2.037-4.696
	c2.619-0.872,4.947-1.648,8.738-2.918C422.064,622.427,420.176,624.568,417.871,627.189z M429.037,569.243
	c-0.848-1.951-1.449-3.344-2.033-4.692c2.617-0.875,4.943-1.652,8.734-2.92C433.23,564.48,431.344,566.624,429.037,569.243z
	 M450.328,581.602c0.314-1.212,0.18-3.231,1.063-3.683c3.207-1.652,4.758,0.58,6.695,3.274
	C455.504,581.331,453.49,581.435,450.328,581.602z M461.492,523.654c0.316-1.212,0.182-3.23,1.066-3.683
	c3.205-1.651,4.756,0.583,6.695,3.277C466.67,523.387,464.656,523.49,461.492,523.654z"/>
<g>
	<path fill="#138899" d="M3641.339,899.641c-0.538-1.354-0.921-2.32-1.29-3.256c1.661-0.607,3.139-1.146,5.543-2.026
		C3644.001,896.335,3642.803,897.823,3641.339,899.641z"/>
	<path fill="#138899" d="M3666.867,867.725c-1.642,0.097-2.918,0.168-4.926,0.282c0.199-0.842,0.114-2.241,0.676-2.556
		C3664.652,864.306,3665.635,865.856,3666.867,867.725z"/>
	<path fill="#138899" d="M3544.554,896.117c0.177-1.494,0.355-2.988,0.533-4.48c0.204-0.1,0.409-0.197,0.612-0.298
		c0.472,0.849,1.307,1.692,1.311,2.542c0.006,0.889-0.787,1.782-1.231,2.673C3545.369,896.408,3544.961,896.264,3544.554,896.117z"
		/>
	<path fill="#138899" d="M3512.482,877.092c-0.74,1.154-1.481,2.308-2.47,3.846c-0.275-1.146-1.034-2.453-0.65-3.223
		c0.366-0.734,1.923-0.907,2.954-1.327C3512.372,876.622,3512.428,876.857,3512.482,877.092z"/>
	<path fill="#138899" d="M3684.816,898.085c-2.377-9.461-2.729-18.78-0.064-28.184c3.449-12.173,1.37-22.938-8.523-31.711
		c-0.078-0.067-0.143-0.153-0.219-0.228c-6.66-6.477-11.572-13.946-13.947-22.913c-0.633-2.395-1.595-4.708-2.444-7.044
		c-3.111-8.557-9.316-13.929-18.179-16.382c-11.416-3.163-21.643-8.107-30.121-16.539c-5.839-5.811-12.955-9.851-21.885-8.947
		c-3.054,0.312-6.115,0.81-9.095,1.524c-9.55,2.297-19.03,2.607-28.682,0.333c-5.171-1.218-10.558-1.571-15.666-2.287l-3.304,1.493
		c-0.052-0.064-0.101-0.126-0.152-0.191c-1.536,0.688-2.928,1.31-3.965,1.771c0.032,0.085,0.063,0.154,0.096,0.237l-2.859,1.292
		c-2.207,1.741-4.986,3.383-7.039,5.645c-7.968,8.779-18.871,12.733-29.639,16.253c-5.195,1.699-9.559,3.856-12.861,7.612
		c-2.475,2.813-4.387,6.461-5.42,10.046c-3.492,12.086-9.582,22.463-18.791,31.331c-5.292,5.092-8.104,11.606-7.38,19.133
		c0.24,2.48,0.427,5.016,1.093,7.405c2.938,10.506,3.354,20.941,0.129,31.493c-3.682,12.049,0.096,22.086,9.105,30.688
		c5.824,5.56,10.568,11.86,12.932,19.642c1.023,3.362,2.307,6.647,3.445,9.978c2.908,8.512,8.885,13.917,17.653,16.404
		c11.47,3.253,21.948,8.01,30.413,16.632c8.262,8.414,18.533,10.609,30.076,7.843c3.798-0.911,7.672-1.62,11.553-2.07
		c8.386-0.974,16.434,1.301,24.602,2.599c6.348,1.01,12.791,1.027,18.392-2.798c3.125-2.13,6.126-4.48,8.912-7.017
		c6.686-6.079,13.965-10.979,23.057-13.102c13.188-3.08,22.422-10.26,25.578-23.781c2.269-9.729,7.556-17.871,14.771-24.92
		c1.284-1.253,1.818-3.2,2.924-4.667c1.555-2.05,3.738-3.738,4.908-5.955C3687.748,912.007,3686.533,904.906,3684.816,898.085z
		 M3513.066,785.727l-0.877,0.549c-0.025-0.093-0.051-0.185-0.074-0.275C3512.432,785.909,3512.75,785.817,3513.066,785.727z"/>
</g>
<g>
	<g>
		<defs>
			<rect id="SVGID_1_" x="3525.732" y="-151.5" width="243.11" height="180.954"/>
		</defs>
		<clipPath id="SVGID_2_">
			<use xlink:href="#SVGID_1_"  overflow="visible"/>
		</clipPath>
		<g clip-path="url(#SVGID_2_)">
			<path fill="#C5D92F" d="M3604.814-203.21c1.127,1.011,1.953,1.834,2.901,2.523c0.144,0.104,1.254-0.518,1.22-0.628
				c-0.313-1.004-0.778-1.969-1.357-3.31c1.037-0.429,2.429-1.003,3.966-1.638c0.573,0.671,1.079,1.261,1.813,2.121
				c0.521-1.058,0.891-1.804,1.642-3.324c5.109,0.662,10.495,0.988,15.666,2.114c9.651,2.103,19.132,1.814,28.683-0.308
				c2.979-0.662,6.041-1.123,9.096-1.409c8.929-0.835,16.045,2.899,21.885,8.269c8.479,7.793,18.704,12.362,30.12,15.285
				c8.862,2.269,15.065,7.233,18.178,15.142c0.852,2.159,1.813,4.297,2.445,6.51c2.374,8.288,7.287,15.191,13.947,21.177
				c0.075,0.068,0.14,0.146,0.219,0.209c9.894,8.108,11.974,18.059,8.524,29.309c-2.666,8.69-2.313,17.304,0.063,26.048
				c1.716,6.304,2.931,12.866-0.599,19.056c-1.17,2.049-3.354,3.608-4.908,5.504c-1.105,1.354-1.641,3.154-2.924,4.313
				c-7.217,6.514-12.504,14.039-14.771,23.031c-3.156,12.497-12.389,19.132-25.578,21.979c-9.092,1.962-16.371,6.49-23.057,12.109
				c-2.787,2.343-5.787,4.516-8.911,6.484c-5.601,3.535-12.046,3.518-18.392,2.585c-8.168-1.198-16.217-3.301-24.603-2.4
				c-3.881,0.416-7.755,1.071-11.553,1.913c-11.543,2.558-21.813,0.527-30.076-7.249c-8.465-7.968-18.942-12.365-30.413-15.371
				c-8.769-2.299-14.745-7.295-17.652-15.161c-1.14-3.077-2.423-6.113-3.445-9.221c-2.363-7.191-7.107-13.015-12.932-18.152
				c-9.012-7.95-12.787-17.227-9.105-28.361c3.227-9.753,2.809-19.397-0.129-29.107c-0.666-2.209-0.854-4.551-1.093-6.845
				c-0.727-6.955,2.088-12.977,7.38-17.683c9.209-8.196,15.299-17.786,18.791-28.957c1.033-3.313,2.945-6.685,5.42-9.284
				c3.303-3.47,7.666-5.466,12.861-7.035c10.768-3.252,21.67-6.907,29.639-15.021
				C3599.828-200.085,3602.607-201.602,3604.814-203.21z M3633.54-178.922c0.091,0.574,0.221,1.396,0.353,2.225
				c2.129-1.03,3.943-1.908,5.709-2.762c-1.246-0.697-2.338-1.308-2.713-1.517c0-2.337,0.097-3.903-0.07-5.442
				c-0.039-0.355-1.014-0.893-1.493-0.835c-0.369,0.044-0.902,0.888-0.901,1.375c0.004,1.309,0.258,2.616,0.409,3.926
				c-1.563,2.289-6.096,1.063-6.549,5.583C3630.494-177.442,3632.039-178.192,3633.54-178.922z M3631.114-166.163
				c0.092-1.742,0.073-2.846,0.232-3.923c0.115-0.779,0.468-1.527,0.716-2.288c0.623,0.438,1.248,0.876,2.412,1.691
				c0.313-1.07,0.994-2.296,0.904-3.466c-0.062-0.778-1.22-1.479-1.886-2.214c-0.231,0.149-0.463,0.301-0.694,0.449
				c0,0.738,0,1.477,0,2.973c-0.816-1.424-1.256-2.192-1.977-3.451c-0.479,0.875-1.092,1.574-0.946,1.79
				c1.41,2.088,0.381,2.579-1.638,2.901c-0.639,0.102-1.117,1.155-1.668,1.774c0.185,0.185,0.367,0.37,0.554,0.556
				c0.685-0.049,1.368-0.098,2.08-0.147c-0.476,0.947-0.858,1.715-1.242,2.48C3628.895-166.778,3629.824-166.52,3631.114-166.163z
				 M3598.001-179.113c-1.155,1.415-2.319,2.843-3.701,4.536c2.04,0.586,3.531,1.015,5.023,1.442
				c0.448-0.159,0.898-0.319,1.349-0.479C3594.534-174.612,3600.902-177.175,3598.001-179.113z M3586.352-170.692
				c0.242-0.034,0.484-0.069,0.729-0.105c0.26-1.141,0.521-2.279,0.916-4.006c-1.873,0.133-3.396,0.023-4.741,0.45
				c-0.486,0.154-0.547,1.584-0.802,2.432c0.239,0.079,0.479,0.158,0.721,0.237c0.515-0.763,1.027-1.524,1.619-2.399
				C3585.39-172.788,3585.872-171.739,3586.352-170.692z M3633.686-190.234c-0.234-0.229-0.471-0.454-0.705-0.682
				c-0.721,0.639-2.157,1.479-2.037,1.884c0.493,1.677,1.461,3.222,2.254,4.813c0.162-0.136,0.325-0.271,0.488-0.405
				C3633.686-186.494,3633.686-188.365,3633.686-190.234z M3713.258-51.197c1.465-1.817,2.662-3.305,4.254-5.282
				c-2.404,0.88-3.883,1.419-5.545,2.026C3712.337-53.519,3712.719-52.553,3713.258-51.197z M3738.785-83.112
				c-1.23-1.87-2.215-3.419-4.25-2.273c-0.56,0.314-0.476,1.715-0.674,2.557C3735.867-82.945,3737.146-83.018,3738.785-83.112z
				 M3629.63-186.692c-0.33-0.765-0.632-1.469-0.781-1.813c-1.243,0.325-2.4,0.298-2.847,0.832
				c-0.518,0.619-0.408,1.731-0.673,3.177C3627.247-185.476,3628.326-186.025,3629.63-186.692z M3623.679-188.133
				c-1.801,0.415-3.118,0.719-4.624,1.066c0.196,0.972,0.438,2.178,0.848,4.221C3621.385-184.923,3622.391-186.328,3623.679-188.133
				z M3574.753-164.604c-0.432,0.234-0.862,0.47-1.293,0.704c0.601,1.176,1.2,2.351,1.802,3.526
				c0.527-0.323,1.534-0.891,1.512-0.935C3576.165-162.441,3575.45-163.518,3574.753-164.604z M3616.472-54.721
				c0.408,0.146,0.815,0.291,1.226,0.438c0.443-0.891,1.236-1.784,1.232-2.674c-0.004-0.849-0.841-1.695-1.311-2.541
				c-0.205,0.1-0.409,0.197-0.614,0.297C3616.827-57.707,3616.65-56.214,3616.472-54.721z M3592.609-183.598
				c1.393-2.15,1.219-3.973-0.535-5.367c-0.316,0.085-0.635,0.169-0.951,0.252C3591.617-187.007,3592.113-185.303,3592.609-183.598z
				 M3584.4-73.745c-0.056-0.234-0.109-0.469-0.164-0.705c-1.033,0.42-2.59,0.594-2.955,1.328c-0.384,0.768,0.373,2.076,0.651,3.223
				C3582.92-71.438,3583.662-72.592,3584.4-73.745z M3590.17-171.354c0.354-0.107,0.708-0.215,1.061-0.322
				c-0.299-1.306-0.601-2.612-1.032-4.49C3587.528-173.592,3588.504-172.399,3590.17-171.354z"/>
			<path fill="#C5D92F" d="M3640.629-219.131c-1.503,0.729-3.046,1.479-5.257,2.554c0.455-4.52,4.985-3.294,6.549-5.584
				c-0.153-1.309-0.403-2.616-0.409-3.925c-0.001-0.487,0.533-1.331,0.902-1.376c0.479-0.057,1.452,0.479,1.492,0.835
				c0.167,1.54,0.07,3.106,0.07,5.444c0.375,0.208,1.467,0.818,2.711,1.515c-1.765,0.854-3.577,1.732-5.707,2.762
				C3640.85-217.734,3640.721-218.557,3640.629-219.131z"/>
			<path fill="#C5D92F" d="M3638.203-206.372c-1.29-0.356-2.221-0.614-3.151-0.872c0.384-0.767,0.768-1.533,1.242-2.482
				c-0.711,0.051-1.396,0.1-2.081,0.148c-0.184-0.186-0.367-0.371-0.552-0.556c0.55-0.619,1.028-1.673,1.667-1.775
				c2.019-0.322,3.047-0.813,1.637-2.9c-0.145-0.217,0.467-0.915,0.947-1.791c0.721,1.259,1.16,2.028,1.977,3.452
				c0-1.495,0-2.234,0-2.973c0.231-0.149,0.463-0.3,0.692-0.449c0.669,0.735,1.827,1.435,1.888,2.214
				c0.091,1.17-0.591,2.396-0.906,3.467c-1.164-0.817-1.787-1.256-2.412-1.693c-0.244,0.762-0.598,1.509-0.714,2.288
				C3638.277-209.217,3638.295-208.114,3638.203-206.372z"/>
			<path fill="#C5D92F" d="M3605.09-219.323c2.902,1.94-3.467,4.503,2.671,5.501c-0.448,0.16-0.898,0.32-1.349,0.479
				c-1.492-0.428-2.984-0.856-5.022-1.442C3602.771-216.479,3603.934-217.907,3605.09-219.323z"/>
			<path fill="#C5D92F" d="M3593.441-210.9c-0.48-1.048-0.963-2.096-1.56-3.392c-0.591,0.875-1.104,1.637-1.62,2.398
				c-0.239-0.079-0.48-0.158-0.722-0.236c0.256-0.848,0.315-2.277,0.805-2.432c1.344-0.426,2.865-0.317,4.74-0.45
				c-0.396,1.726-0.655,2.865-0.918,4.006C3593.926-210.971,3593.682-210.936,3593.441-210.9z"/>
			<path fill="#C5D92F" d="M3640.773-230.443c0,1.87,0,3.741,0,5.61c-0.162,0.135-0.326,0.271-0.488,0.406
				c-0.792-1.593-1.76-3.138-2.254-4.813c-0.121-0.404,1.316-1.245,2.037-1.885C3640.305-230.897,3640.539-230.67,3640.773-230.443z
				"/>
			<path fill="#C5D92F" d="M3720.347-91.405c-0.538-1.354-0.921-2.321-1.29-3.256c1.66-0.608,3.139-1.147,5.543-2.027
				C3723.009-94.711,3721.811-93.223,3720.347-91.405z"/>
			<path fill="#C5D92F" d="M3745.875-123.321c-1.641,0.096-2.918,0.168-4.925,0.282c0.198-0.842,0.114-2.241,0.675-2.556
				C3743.66-126.74,3744.645-125.189,3745.875-123.321z"/>
			<path fill="#C5D92F" d="M3636.719-226.901c-1.305,0.667-2.381,1.218-4.299,2.196c0.262-1.444,0.154-2.558,0.671-3.176
				c0.444-0.535,1.604-0.506,2.847-0.833C3636.087-228.369,3636.389-227.666,3636.719-226.901z"/>
			<path fill="#C5D92F" d="M3630.768-228.341c-1.289,1.805-2.291,3.208-3.775,5.286c-0.41-2.041-0.65-3.248-0.848-4.221
				C3627.648-227.623,3628.967-227.926,3630.768-228.341z"/>
			<path fill="#C5D92F" d="M3581.841-204.813c0.697,1.086,1.413,2.163,2.022,3.295c0.021,0.044-0.985,0.612-1.514,0.935
				c-0.602-1.175-1.201-2.35-1.802-3.525C3580.979-204.344,3581.41-204.578,3581.841-204.813z"/>
			<path fill="#C5D92F" d="M3623.563-94.929c0.178-1.494,0.354-2.988,0.532-4.48c0.204-0.1,0.409-0.198,0.613-0.298
				c0.471,0.848,1.306,1.692,1.31,2.542c0.007,0.889-0.787,1.782-1.231,2.673C3624.377-94.638,3623.969-94.782,3623.563-94.929z"/>
			<path fill="#C5D92F" d="M3599.698-223.807c-0.497-1.704-0.991-3.409-1.486-5.114c0.317-0.084,0.635-0.167,0.952-0.252
				C3600.916-227.779,3601.091-225.957,3599.698-223.807z"/>
			<path fill="#C5D92F" d="M3591.49-113.954c-0.74,1.154-1.481,2.307-2.469,3.846c-0.276-1.146-1.035-2.454-0.651-3.223
				c0.366-0.734,1.923-0.907,2.954-1.327C3591.38-114.424,3591.436-114.188,3591.49-113.954z"/>
			<path fill="#C5D92F" d="M3597.259-211.562c-1.667-1.047-2.644-2.238,0.026-4.814c0.435,1.879,0.734,3.185,1.035,4.49
				C3597.967-211.778,3597.613-211.671,3597.259-211.562z"/>
		</g>
	</g>
</g>
<g id="Your_Icon_1_">
	<path fill="#C5D92F" d="M4250.35,38.257h-114.342c-14.328,0-25.984,11.652-25.984,25.982V326.24
		c0,14.333,11.656,25.984,25.984,25.984h114.342c14.328,0,25.986-11.651,25.986-25.984V64.239
		C4276.329,49.909,4264.674,38.257,4250.35,38.257z M4178.668,45.413h29.018c1.271,0,2.305,1.032,2.305,2.306
		c0,1.274-1.033,2.307-2.305,2.307h-29.018c-1.271,0-2.305-1.033-2.305-2.307C4176.363,46.445,4177.396,45.413,4178.668,45.413z
		 M4210.836,337.387c0,2.82-2.288,5.107-5.111,5.107h-25.092c-2.824,0-5.112-2.287-5.112-5.107v-2.382
		c0-2.819,2.289-5.109,5.112-5.109h25.092c2.824,0,5.111,2.29,5.111,5.109V337.387z M4266.818,325.05h-147.283V66.174h147.283
		V325.05z"/>
</g>
<g id="Task_list_1_">
	<path d="M4762.334,146.415h-334.395c-5.133,0-9.289,4.156-9.289,9.288v408.701c0,5.132,4.155,9.288,9.289,9.288h334.395
		c5.135,0,9.287-4.156,9.287-9.288V155.703C4771.621,150.571,4767.461,146.415,4762.334,146.415z M4753.041,164.992v390.124H4437.23
		V164.992H4753.041z"/>
	<path d="M4465.096,397.211h55.729c5.138,0,9.288-4.16,9.288-9.292v-55.73c0-5.132-4.15-9.292-9.288-9.292h-55.729
		c-5.136,0-9.287,4.16-9.287,9.292v55.73C4455.809,393.051,4459.96,397.211,4465.096,397.211z M4474.38,341.478h37.157v37.152
		h-37.157V341.478z"/>
	<path d="M4465.096,295.036h55.729c5.138,0,9.288-4.156,9.288-9.288V230.01c0-5.128-4.15-9.288-9.288-9.288h-4.489l2.041-8.162
		c0.617-2.486-0.889-5.007-3.385-5.629c-2.479-0.65-5.006,0.889-5.629,3.376l-2.606,10.415h-41.66c-5.136,0-9.288,4.16-9.288,9.288
		v55.729C4455.809,290.872,4459.96,295.036,4465.096,295.036z M4474.38,239.302h27.718l-4.33,17.301l-6.863-9.484
		c-1.516-2.087-4.41-2.538-6.483-1.039c-2.078,1.502-2.556,4.41-1.043,6.483l11.629,16.077c0.229,0.317,0.567,0.484,0.854,0.726
		c0.599,1.106,1.61,1.979,2.924,2.305c0.373,0.096,0.756,0.141,1.127,0.141c2.084,0,3.974-1.401,4.506-3.513l7.111-28.412v36.573
		h-37.157v-37.157L4474.38,239.302L4474.38,239.302z"/>
	<path d="M4465.096,499.386h55.729c5.138,0,9.288-4.16,9.288-9.287V434.36c0-5.132-4.15-9.287-9.288-9.287h-55.729
		c-5.136,0-9.287,4.155-9.287,9.287v55.729C4455.809,495.222,4459.96,499.386,4465.096,499.386z M4474.38,443.648h37.157v37.156
		h-37.157V443.648z"/>
	<path d="M4567.271,267.167h111.463c5.137,0,9.287-4.156,9.287-9.288c0-5.133-4.15-9.288-9.287-9.288h-111.463
		c-5.138,0-9.289,4.155-9.289,9.288C4557.982,263.011,4562.135,267.167,4567.271,267.167z"/>
	<path d="M4678.768,350.766h-111.463c-5.137,0-9.289,4.156-9.289,9.288c0,5.133,4.152,9.288,9.289,9.288h111.463
		c5.138,0,9.289-4.155,9.289-9.288C4688.057,354.922,4683.904,350.766,4678.768,350.766z"/>
	<path d="M4567.271,471.518h111.463c5.137,0,9.287-4.155,9.287-9.287c0-5.134-4.15-9.289-9.287-9.289h-111.463
		c-5.138,0-9.289,4.155-9.289,9.289C4557.982,467.361,4562.135,471.518,4567.271,471.518z"/>
</g>
<image overflow="visible" enable-background="new    " width="128" height="82" xlink:href="78479AE0.jpg"  transform="matrix(1.5625 0 0 1.561 3213 -45.999)">
</image>
<path fill="#138899" d="M3770.102-190.022c-81.877,0-163.428,0-245.438,0c1.492-10.662,2.945-21.111,4.42-31.557
	c1.325-9.379,2.876-18.73,3.956-28.138c1.01-8.795,7.839-16.655,18.239-16.244c13.771,0.544,27.577,0.159,41.37,0.126
	c13.136-0.032,24.318-10.907,24.314-23.991c-0.003-10.035,0.191-20.152-0.971-30.085c-1.178-10.052-6.577-18.52-13.25-26.116
	c-22.1-25.165-21.486-61.158,1.373-84.312c23.186-23.48,60.716-24.297,84.8-1.845c24.177,22.538,26.143,60.11,4.169,85.106
	c-10.34,11.763-16.018,24.974-15.217,40.804c0.268,5.302,0.031,10.629,0.054,15.944c0.054,13.33,11.071,24.453,24.323,24.489
	c14.221,0.038,28.444-0.01,42.668,0.018c8.289,0.015,15.256,5.453,16.479,13.501c3.058,20.148,5.828,40.341,8.703,60.518
	C3770.154-191.385,3770.102-190.947,3770.102-190.022z M3542.152-205.218c70.736,0,140.57,0,210.699,0
	c-1.944-13.469-4.137-26.486-5.558-39.586c-0.543-4.995-2.42-5.944-6.965-5.837c-12.489,0.296-24.992,0.129-37.487,0.07
	c-22.433-0.104-40.152-17.878-40.175-40.235c-0.004-4.453,0.133-8.911-0.055-13.357c-0.869-20.531,5.799-38.042,19.44-53.53
	c17.353-19.698,14.031-49.822-6.467-65.896c-20.389-15.987-50.021-11.714-65.223,9.407c-12.691,17.632-11.18,40.731,3.986,58.297
	c8.332,9.649,14.869,20.413,16.588,33.028c1.463,10.741,1.186,21.752,1.241,32.646c0.111,21.567-17.789,39.48-39.364,39.646
	c-10.197,0.077-20.396,0.024-30.595,0.028c-4.426,0.002-8.852,0.001-13.612,0.001
	C3546.43-235.237,3544.313-220.389,3542.152-205.218z"/>
<path opacity="0.32" fill="#B3C99F" enable-background="new    " d="M3701.854-332.47c4.758-7.288,9.241-14.253,13.861-21.128
	c0.651-0.971,1.859-1.742,2.978-2.206c56.429-23.428,112.876-46.813,169.323-70.192c0.254-0.104,0.559-0.081,1.525-0.206
	c9.556,23.046,19.182,46.257,28.958,69.83c-9.065,3.788-17.889,7.503-26.731,11.166c-50.354,20.855-100.703,41.717-151.092,62.489
	c-2.312,0.953-4.958,1.477-7.458,1.513c-10.998,0.161-22,0.07-32.999,0.07c-0.079-0.354-0.16-0.708-0.238-1.063
	c66.127-27.398,132.254-54.798,198.707-82.332c-5.848-14.11-11.591-27.967-17.496-42.214
	C3821.159-381.88,3761.486-357.166,3701.854-332.47z"/>
<path d="M3525.941-159.785c0-4.903,0-9.59,0-14.487c81.039,0,161.836,0,242.977,0c0,4.608,0,9.273,0,14.487
	C3688.203-159.785,3607.271-159.785,3525.941-159.785z"/>
<path opacity="0.32" fill="#B3C99F" enable-background="new    " d="M3721.061-408.197c-1.93-4.879-3.765-9.52-5.616-14.204
	c34.504-33.037,96.274-34.96,133.291-3.876c-4.873,2.044-9.584,4.129-14.396,5.947c-1.009,0.383-2.563,0.123-3.57-0.404
	c-39.094-20.462-75.383-16.249-108.967,12.233C3721.699-408.412,3721.54-408.39,3721.061-408.197z"/>
<path fill="#FFFFFF" d="M3542.152-205.218c2.16-15.171,4.277-30.021,6.457-45.318c4.762,0,9.188,0.001,13.613-0.001
	c10.197-0.004,20.396,0.049,30.594-0.028c21.576-0.165,39.477-18.078,39.365-39.646c-0.058-10.894,0.221-21.904-1.242-32.646
	c-1.719-12.615-8.256-23.379-16.588-33.028c-15.165-17.565-16.678-40.665-3.986-58.297c15.2-21.121,44.834-25.395,65.223-9.407
	c20.498,16.073,23.818,46.197,6.467,65.896c-13.643,15.488-20.311,32.999-19.44,53.53c0.188,4.446,0.051,8.904,0.055,13.357
	c0.021,22.357,17.742,40.132,40.175,40.235c12.496,0.06,24.998,0.227,37.487-0.07c4.545-0.107,6.423,0.842,6.966,5.837
	c1.42,13.1,3.611,26.117,5.557,39.586C3682.725-205.218,3612.89-205.218,3542.152-205.218z"/>
<path opacity="0.32" fill="#B3C99F" enable-background="new    " d="M3777.105-250.812c15.646,0.892,30.174-1.226,43.867-7.434
	c26.219-11.889,43.317-31.804,51.678-59.354c0.563-1.857,2.306-3.831,4.032-4.764c3.636-1.961,7.624-3.267,11.472-4.835
	c0.393-0.16,0.803-0.271,1.955-0.659c-0.729,3.941-1.228,7.514-2.063,11.006c-11.514,48.082-55.39,82.106-104.758,81.433
	c-3.282-0.045-4.56-0.955-4.688-4.298C3778.465-243.257,3777.681-246.771,3777.105-250.812z"/>
<text transform="matrix(0.9254 -0.3791 0.3791 0.9254 3743.0449 -309.0229)" opacity="0.32" fill="#B3C99F" enable-background="new    " font-family="'Bebas'" font-size="32.9874">COMPLETE</text>
<rect x="3563.734" y="-121.365" fill="none" width="196.418" height="89.865"/>
<text transform="matrix(1 0 0 1 3563.7354 -49.1621)" fill="#FFFFFF" font-family="'Bebas'" font-size="81.037">100%</text>
<path opacity="0.32" fill="#B7C6A7" enable-background="new    " d="M507.418,427.122c-128.983,0-257.453,0-386.65,0
	c2.35-15.364,9.01-30.423,11.335-45.476c2.085-13.519,4.53-26.994,6.232-40.552c1.59-12.674,12.348-24.002,28.733-23.411
	c21.692,0.784,39.073,0.229,60.801,0.183c20.689-0.046,38.311-15.719,38.304-34.575c-0.006-14.464,0.301-29.043-1.53-43.355
	c-1.854-14.486-10.359-26.691-20.871-37.639c-34.815-36.267-33.853-88.137,2.163-121.505c36.523-33.839,95.647-35.016,133.588-2.659
	c38.086,32.48,41.182,86.631,6.565,122.649c-16.286,16.953-25.231,35.993-23.97,58.804c0.42,7.642,0.05,15.319,0.084,22.979
	c0.084,19.21,17.441,35.241,38.315,35.292c22.404,0.054,38.982-0.015,61.389,0.025c13.061,0.021,24.035,7.858,25.957,19.456
	c4.818,29.036,15.014,58.137,19.543,87.215C507.498,425.158,507.418,425.79,507.418,427.122z"/>
<path opacity="0.32" fill="#B3C99F" enable-background="new    " d="M399.905,221.835c7.494-10.504,14.56-20.541,21.835-30.448
	c1.031-1.399,2.93-2.511,4.691-3.18c88.895-33.762,177.818-67.462,266.744-101.157c0.398-0.149,0.879-0.117,2.402-0.297
	c15.055,33.213,30.217,66.664,45.619,100.636c-14.281,5.459-28.18,10.812-42.111,16.092
	c-79.322,30.056-158.645,60.12-238.021,90.055c-3.641,1.374-7.811,2.129-11.75,2.178c-17.324,0.233-34.654,0.104-51.983,0.104
	c-0.126-0.512-0.253-1.021-0.377-1.531c104.172-39.485,208.348-78.971,313.034-118.653c-9.211-20.335-18.258-40.304-27.563-60.834
	C587.85,150.626,493.848,186.246,399.905,221.835z"/>
<path fill="#3B3B3B" d="M122.782,470.698c0-7.066,0-13.819,0-20.879c127.665,0,254.947,0,382.771,0c0,6.645,0,13.364,0,20.879
	C378.402,470.698,250.905,470.698,122.782,470.698z"/>
<path opacity="0.32" fill="#B3C99F" enable-background="new    " d="M430.162,112.703c-3.041-7.031-5.932-13.719-8.85-20.47
	c54.355-47.612,151.67-50.382,209.979-5.586c-7.676,2.944-15.096,5.95-22.676,8.571c-1.59,0.552-4.037,0.176-5.625-0.584
	c-61.586-29.488-118.752-23.418-171.66,17.631C431.168,112.392,430.918,112.425,430.162,112.703z"/>
<path opacity="0.32" fill="#B3C99F" enable-background="new    " d="M518.453,339.517c24.646,1.285,47.535-1.768,69.107-10.713
	c41.303-17.133,68.238-45.834,81.406-85.538c0.887-2.677,3.635-5.521,6.355-6.864c5.727-2.828,12.012-4.708,18.07-6.97
	c0.617-0.229,1.264-0.391,3.078-0.948c-1.146,5.68-1.932,10.827-3.25,15.86c-18.135,69.292-87.256,118.328-165.027,117.355
	c-5.172-0.063-7.184-1.377-7.387-6.193C520.596,350.404,519.359,345.341,518.453,339.517z"/>
<text transform="matrix(0.9977 -0.3739 0.4087 0.9127 464.8633 255.707)" opacity="0.32" fill="#B3C99F" enable-background="new    " font-family="'Bebas'" font-size="48.1986">progress</text>
<rect x="182.322" y="511.11" fill="none" width="309.426" height="129.511"/>
<g enable-background="new    ">
	<path fill="#C5D92F" d="M202.813,615.166v-80.041h-14.597v-10.949c4.109-0.441,8.024-1.866,11.741-4.271s6.392-5.321,8.024-8.75
		h11.968v104.012H202.813z"/>
	<path fill="#C5D92F" d="M289.305,591.444c0,6.912-2.661,12.773-7.979,17.584c-5.319,4.811-11.696,7.216-19.13,7.216
		c-7.557,0-13.978-2.418-19.267-7.258c-5.29-4.838-7.933-10.686-7.933-17.542V534.71c0-6.911,2.659-12.786,7.979-17.626
		c5.318-4.838,11.726-7.257,19.221-7.257c7.555,0,13.962,2.434,19.221,7.299c5.259,4.866,7.888,10.729,7.888,17.584V591.444z
		 M271.534,534.378c0-2.488-0.967-4.616-2.901-6.387c-1.936-1.769-4.262-2.653-6.981-2.653c-2.72,0-5.032,0.885-6.936,2.653
		c-1.904,1.771-2.856,3.898-2.856,6.387v56.817c0,2.488,0.952,4.617,2.856,6.387c1.904,1.771,4.216,2.654,6.936,2.654
		c2.72,0,5.046-0.884,6.981-2.654c1.934-1.77,2.901-3.898,2.901-6.387V534.378z"/>
	<path fill="#C5D92F" d="M358.392,591.444c0,6.912-2.66,12.773-7.979,17.584c-5.32,4.811-11.695,7.216-19.131,7.216
		c-7.557,0-13.979-2.418-19.268-7.258c-5.289-4.838-7.932-10.686-7.932-17.542V534.71c0-6.911,2.659-12.786,7.979-17.626
		c5.318-4.838,11.725-7.257,19.221-7.257c7.555,0,13.963,2.434,19.221,7.299c5.26,4.866,7.889,10.729,7.889,17.584V591.444z
		 M340.621,534.378c0-2.488-0.967-4.616-2.9-6.387c-1.936-1.769-4.262-2.653-6.982-2.653c-2.719,0-5.031,0.885-6.936,2.653
		c-1.904,1.771-2.855,3.898-2.855,6.387v56.817c0,2.488,0.951,4.617,2.855,6.387c1.904,1.771,4.217,2.654,6.936,2.654
		c2.721,0,5.047-0.884,6.982-2.654c1.934-1.77,2.9-3.898,2.9-6.387V534.378z"/>
	<path fill="#C5D92F" d="M398.646,549.392c0,3.539-1.405,6.581-4.216,9.123c-2.811,2.545-6.151,3.815-10.019,3.815
		c-3.93,0-7.284-1.271-10.063-3.815c-2.781-2.542-4.171-5.584-4.171-9.123v-29.694c0-3.594,1.39-6.663,4.171-9.207
		c2.779-2.543,6.134-3.815,10.063-3.815c3.929,0,7.283,1.286,10.064,3.857c2.779,2.571,4.17,5.627,4.17,9.165V549.392z
		 M385.679,616.908h-10.063l58.039-109.984h9.963L385.679,616.908z M378.971,549.226c0,1.327,0.499,2.446,1.496,3.359
		c0.998,0.912,2.222,1.368,3.672,1.368c1.451,0,2.675-0.456,3.673-1.368c0.997-0.913,1.495-2.032,1.495-3.359v-29.694
		c0-1.327-0.498-2.447-1.495-3.359c-0.998-0.912-2.222-1.368-3.673-1.368c-1.45,0-2.674,0.456-3.672,1.368
		c-0.997,0.912-1.496,2.032-1.496,3.359V549.226z M434.912,560.091c3.93,0,7.268,1.286,10.02,3.857
		c2.75,2.571,4.125,5.627,4.125,9.165v29.694c0,3.595-1.391,6.635-4.17,9.124c-2.781,2.488-6.107,3.732-9.975,3.732
		c-3.93,0-7.283-1.258-10.063-3.774c-2.781-2.516-4.172-5.543-4.172-9.082v-29.694c0-3.594,1.391-6.663,4.172-9.207
		C427.629,561.363,430.982,560.091,434.912,560.091z M439.809,572.947c0-1.327-0.498-2.446-1.496-3.359
		c-0.996-0.912-2.221-1.368-3.672-1.368s-2.674,0.456-3.672,1.368c-0.998,0.913-1.496,2.032-1.496,3.359v29.694
		c0,1.327,0.498,2.446,1.496,3.359c0.998,0.912,2.221,1.368,3.672,1.368s2.676-0.456,3.672-1.368
		c0.998-0.913,1.496-2.032,1.496-3.359V572.947z"/>
</g>
<rect x="155.051" y="632.708" fill="none" width="309.426" height="51.688"/>
<g enable-background="new    ">
	<path fill="#FFFFFF" d="M233.824,666.341c-2.412,0-4.461-0.772-6.149-2.316s-2.532-3.41-2.532-5.599v-18.106
		c0-2.206,0.849-4.081,2.546-5.626c1.697-1.544,3.742-2.315,6.134-2.315c2.411,0,4.457,0.776,6.135,2.329s2.517,3.424,2.517,5.612
		v3.785h-5.671v-3.892c0-0.794-0.309-1.473-0.926-2.038c-0.618-0.564-1.36-0.847-2.228-0.847s-1.606,0.282-2.214,0.847
		c-0.607,0.565-0.911,1.244-0.911,2.038v18.16c0,0.794,0.304,1.469,0.911,2.024c0.608,0.556,1.346,0.834,2.214,0.834
		s1.61-0.278,2.228-0.834c0.617-0.556,0.926-1.23,0.926-2.024v-4.58h5.671v4.633c0,2.206-0.849,4.076-2.546,5.611
		C238.231,665.573,236.197,666.341,233.824,666.341z"/>
	<path fill="#FFFFFF" d="M255.525,632.324c2.411,0,4.461,0.777,6.149,2.33s2.532,3.424,2.532,5.611v18.107
		c0,2.206-0.849,4.081-2.546,5.625c-1.698,1.544-3.743,2.316-6.134,2.316c-2.412,0-4.456-0.776-6.134-2.33
		c-1.678-1.553-2.518-3.423-2.518-5.611v-18.107c0-2.205,0.849-4.08,2.546-5.625C251.117,633.097,253.153,632.324,255.525,632.324z
		 M258.506,640.16c0-0.794-0.304-1.469-0.912-2.025c-0.607-0.556-1.345-0.834-2.213-0.834s-1.611,0.278-2.228,0.834
		c-0.618,0.557-0.926,1.231-0.926,2.025v18.159c0,0.795,0.309,1.47,0.926,2.025c0.617,0.556,1.36,0.834,2.228,0.834
		s1.606-0.278,2.213-0.834c0.608-0.556,0.912-1.23,0.912-2.025V640.16z"/>
	<path fill="#FFFFFF" d="M274.478,665.917h-5.469v-33.195h7.848l5.097,23.846l4.893-23.846h7.54v33.195h-5.469v-20.859
		l-4.745,20.859h-4.398l-5.296-20.807V665.917z"/>
	<path fill="#FFFFFF" d="M307.899,632.748c2.662,0,4.784,0.768,6.366,2.303c1.466,1.466,2.199,3.336,2.199,5.612v4.817
		c0,2.188-0.835,4.06-2.504,5.612c-1.668,1.554-3.689,2.33-6.062,2.33h-3.154v12.494h-5.469v-33.169H307.899z M311.168,640.742
		c0-0.864-0.285-1.562-0.854-2.091c-0.569-0.529-1.327-0.794-2.271-0.794h-3.299v10.615h3.299c0.868,0,1.606-0.282,2.214-0.848
		c0.607-0.564,0.911-1.244,0.911-2.038V640.742z"/>
	<path fill="#FFFFFF" d="M335.735,665.917h-14.902v-33.169h5.469v28.192h9.434V665.917z"/>
	<path fill="#FFFFFF" d="M339.496,665.917v-33.195h15.567v5.029h-10.099v9.054h7.379v5.029h-7.379v9.054h10.099v5.029H339.496z"/>
	<path fill="#FFFFFF" d="M364.641,637.777h-5.816v-5.029h17.072v5.029h-5.787v28.14h-5.469V637.777z"/>
	<path fill="#FFFFFF" d="M380.294,665.917v-33.195h15.567v5.029h-10.099v9.054h7.379v5.029h-7.379v9.054h10.099v5.029H380.294z"/>
</g>
<path fill="#138899" d="M4296.624-142.935c-94.608,0-188.841,0-283.606,0c1.726-12.32,3.404-24.395,5.107-36.464
	c1.531-10.837,3.322-21.643,4.571-32.513c1.167-10.163,9.058-19.245,21.075-18.771c15.912,0.629,31.866,0.184,47.804,0.146
	c15.179-0.037,28.102-12.604,28.097-27.722c-0.004-11.596,0.221-23.286-1.121-34.764c-1.359-11.614-7.602-21.399-15.311-30.177
	c-25.537-29.079-24.828-70.669,1.588-97.423c26.787-27.132,70.155-28.075,97.983-2.131c27.937,26.042,30.207,69.457,4.817,98.34
	c-11.949,13.592-18.508,28.857-17.584,47.149c0.311,6.126,0.037,12.281,0.063,18.424c0.062,15.402,12.793,28.256,28.104,28.297
	c16.435,0.044,32.867-0.011,49.304,0.021c9.579,0.017,17.629,6.301,19.04,15.601c3.533,23.281,6.734,46.614,10.059,69.927
	C4296.686-144.509,4296.624-144.003,4296.624-142.935z M4033.229-160.492c81.736,0,162.431,0,243.465,0
	c-2.248-15.563-4.779-30.605-6.422-45.742c-0.627-5.771-2.797-6.869-8.049-6.744c-14.43,0.342-28.877,0.148-43.315,0.081
	c-25.921-0.12-46.397-20.658-46.422-46.492c-0.005-5.146,0.153-10.297-0.063-15.435c-1.002-23.724,6.701-43.958,22.465-61.854
	c20.051-22.762,16.213-57.569-7.473-76.144c-23.559-18.474-57.801-13.535-75.363,10.87c-14.666,20.374-12.918,47.065,4.604,67.362
	c9.628,11.149,17.183,23.587,19.168,38.164c1.688,12.412,1.369,25.135,1.437,37.723c0.127,24.921-20.558,45.619-45.487,45.811
	c-11.783,0.089-23.567,0.027-35.352,0.032c-5.114,0.002-10.229,0.001-15.729,0.001
	C4038.171-195.181,4035.727-178.022,4033.229-160.492z"/>
<path fill="#536566" d="M4014.496-107.995c0-5.666,0-11.081,0-16.74c93.641,0,187.004,0,280.762,0c0,5.325,0,10.716,0,16.74
	C4201.99-107.995,4108.475-107.995,4014.496-107.995z"/>
<path fill="#FFFFFF" d="M4033.229-160.492c2.498-17.53,4.942-34.688,7.461-52.366c5.502,0,10.616,0.001,15.73-0.001
	c11.783-0.005,23.566,0.057,35.352-0.032c24.931-0.191,45.613-20.89,45.486-45.811c-0.066-12.588,0.254-25.311-1.436-37.723
	c-1.985-14.577-9.541-27.015-19.168-38.164c-17.523-20.297-19.271-46.988-4.605-67.362c17.563-24.405,51.807-29.344,75.363-10.87
	c23.686,18.573,27.522,53.381,7.473,76.144c-15.764,17.896-23.467,38.131-22.464,61.854c0.217,5.138,0.06,10.289,0.063,15.436
	c0.023,25.834,20.5,46.372,46.422,46.492c14.438,0.067,28.887,0.261,43.315-0.081c5.252-0.125,7.422,0.973,8.049,6.744
	c1.642,15.137,4.174,30.179,6.422,45.742C4195.658-160.492,4114.965-160.492,4033.229-160.492z"/>
<rect x="3487.729" y="834.807" fill="none" width="196.418" height="89.865"/>
<text transform="matrix(1 0 0 1 3487.7275 907.0098)" fill="#FFFFFF" font-family="'Bebas'" font-size="81.037">100%</text>
<rect x="3470.416" y="919.181" fill="none" width="196.418" height="35.866"/>
<text transform="matrix(1 0 0 1 3513.7158 942.2246)" fill="#FFFFFF" font-family="'Bebas'" font-size="25.8629">COMPLETE</text>
<g>
	<g>
		<defs>
			<rect id="SVGID_3_" x="3247.732" y="500.546" width="243.11" height="180.954"/>
		</defs>
		<clipPath id="SVGID_4_">
			<use xlink:href="#SVGID_3_"  overflow="visible"/>
		</clipPath>
		<g clip-path="url(#SVGID_4_)">
			<path fill="#138899" d="M3326.814,448.836c1.127,1.011,1.953,1.834,2.901,2.523c0.144,0.104,1.254-0.519,1.22-0.628
				c-0.313-1.005-0.778-1.97-1.357-3.311c1.037-0.429,2.429-1.003,3.966-1.638c0.573,0.671,1.079,1.261,1.813,2.121
				c0.521-1.059,0.891-1.805,1.642-3.324c5.109,0.662,10.495,0.988,15.666,2.114c9.651,2.103,19.132,1.813,28.683-0.309
				c2.979-0.662,6.041-1.123,9.096-1.409c8.929-0.835,16.045,2.899,21.885,8.27c8.479,7.793,18.704,12.362,30.12,15.285
				c8.862,2.269,15.065,7.232,18.178,15.142c0.852,2.159,1.813,4.297,2.445,6.51c2.374,8.288,7.287,15.191,13.947,21.178
				c0.075,0.067,0.14,0.146,0.219,0.209c9.894,8.107,11.974,18.059,8.524,29.309c-2.666,8.69-2.313,17.304,0.063,26.048
				c1.716,6.305,2.931,12.866-0.599,19.057c-1.17,2.049-3.354,3.607-4.908,5.504c-1.105,1.354-1.641,3.153-2.924,4.313
				c-7.217,6.515-12.504,14.039-14.771,23.031c-3.156,12.497-12.389,19.132-25.578,21.979c-9.092,1.963-16.371,6.49-23.057,12.109
				c-2.787,2.343-5.787,4.516-8.911,6.484c-5.601,3.535-12.046,3.518-18.392,2.585c-8.168-1.198-16.217-3.301-24.603-2.4
				c-3.881,0.416-7.755,1.071-11.553,1.913c-11.543,2.559-21.813,0.527-30.076-7.249c-8.465-7.968-18.942-12.365-30.413-15.371
				c-8.769-2.299-14.745-7.295-17.652-15.161c-1.14-3.076-2.423-6.112-3.445-9.221c-2.363-7.191-7.107-13.015-12.932-18.152
				c-9.012-7.949-12.787-17.227-9.105-28.36c3.227-9.753,2.809-19.397-0.129-29.107c-0.666-2.209-0.854-4.551-1.093-6.845
				c-0.727-6.955,2.088-12.977,7.38-17.683c9.209-8.196,15.299-17.786,18.791-28.957c1.033-3.313,2.945-6.686,5.42-9.284
				c3.303-3.471,7.666-5.466,12.861-7.035c10.768-3.252,21.67-6.907,29.639-15.021
				C3321.828,451.961,3324.607,450.444,3326.814,448.836z M3355.54,473.124c0.091,0.574,0.221,1.396,0.353,2.225
				c2.129-1.029,3.943-1.907,5.709-2.762c-1.246-0.697-2.338-1.308-2.713-1.517c0-2.337,0.097-3.903-0.07-5.442
				c-0.039-0.354-1.014-0.893-1.493-0.835c-0.369,0.044-0.902,0.888-0.901,1.375c0.004,1.309,0.258,2.616,0.409,3.926
				c-1.563,2.289-6.096,1.063-6.549,5.583C3352.494,474.604,3354.039,473.854,3355.54,473.124z M3353.114,485.883
				c0.092-1.742,0.073-2.846,0.232-3.923c0.115-0.779,0.468-1.527,0.716-2.288c0.623,0.438,1.248,0.876,2.412,1.691
				c0.313-1.07,0.994-2.296,0.904-3.467c-0.062-0.777-1.22-1.479-1.886-2.214c-0.231,0.149-0.463,0.302-0.694,0.449
				c0,0.738,0,1.478,0,2.974c-0.816-1.425-1.256-2.192-1.977-3.451c-0.479,0.875-1.092,1.574-0.946,1.79
				c1.41,2.088,0.381,2.579-1.638,2.9c-0.639,0.103-1.117,1.155-1.668,1.774c0.185,0.185,0.367,0.37,0.554,0.556
				c0.685-0.049,1.368-0.098,2.08-0.146c-0.476,0.946-0.858,1.715-1.242,2.479C3350.895,485.268,3351.824,485.526,3353.114,485.883z
				 M3320.001,472.933c-1.155,1.415-2.319,2.844-3.701,4.536c2.04,0.586,3.531,1.016,5.023,1.442
				c0.448-0.159,0.898-0.319,1.349-0.479C3316.534,477.434,3322.902,474.871,3320.001,472.933z M3308.352,481.354
				c0.242-0.033,0.484-0.068,0.729-0.104c0.26-1.141,0.521-2.279,0.916-4.006c-1.873,0.133-3.396,0.023-4.741,0.45
				c-0.486,0.153-0.547,1.584-0.802,2.432c0.239,0.079,0.479,0.158,0.721,0.237c0.515-0.764,1.027-1.524,1.619-2.399
				C3307.39,479.258,3307.872,480.307,3308.352,481.354z M3355.686,461.813c-0.234-0.229-0.471-0.454-0.705-0.683
				c-0.721,0.64-2.157,1.479-2.037,1.884c0.493,1.678,1.461,3.223,2.254,4.813c0.162-0.136,0.325-0.271,0.488-0.405
				C3355.686,465.552,3355.686,463.681,3355.686,461.813z M3435.258,600.849c1.465-1.816,2.662-3.305,4.254-5.281
				c-2.404,0.88-3.883,1.419-5.545,2.025C3434.337,598.527,3434.719,599.493,3435.258,600.849z M3460.785,568.934
				c-1.23-1.869-2.215-3.419-4.249-2.273c-0.561,0.314-0.477,1.715-0.675,2.557C3457.867,569.101,3459.146,569.028,3460.785,568.934
				z M3351.63,465.354c-0.33-0.765-0.632-1.469-0.781-1.813c-1.243,0.325-2.4,0.298-2.847,0.832
				c-0.518,0.619-0.408,1.73-0.673,3.177C3349.247,466.57,3350.326,466.021,3351.63,465.354z M3345.679,463.913
				c-1.801,0.415-3.118,0.719-4.624,1.065c0.196,0.973,0.438,2.179,0.848,4.222C3343.385,467.123,3344.391,465.718,3345.679,463.913
				z M3296.753,487.441c-0.432,0.233-0.862,0.47-1.293,0.703c0.601,1.177,1.2,2.352,1.802,3.526
				c0.527-0.323,1.534-0.891,1.512-0.935C3298.165,489.604,3297.45,488.528,3296.753,487.441z M3338.472,597.325
				c0.408,0.146,0.815,0.291,1.226,0.438c0.443-0.891,1.236-1.784,1.232-2.674c-0.004-0.849-0.841-1.695-1.311-2.541
				c-0.205,0.101-0.409,0.197-0.614,0.297C3338.827,594.339,3338.65,595.832,3338.472,597.325z M3314.609,468.448
				c1.393-2.15,1.219-3.974-0.535-5.367c-0.316,0.085-0.635,0.169-0.951,0.252C3313.617,465.039,3314.113,466.743,3314.609,468.448z
				 M3306.4,578.301c-0.056-0.233-0.109-0.469-0.164-0.705c-1.033,0.42-2.59,0.595-2.955,1.328
				c-0.384,0.769,0.373,2.076,0.651,3.224C3304.92,580.607,3305.662,579.454,3306.4,578.301z M3312.17,480.691
				c0.354-0.107,0.708-0.216,1.061-0.322c-0.299-1.307-0.601-2.612-1.032-4.49C3309.528,478.454,3310.504,479.646,3312.17,480.691z"
				/>
			<path fill="#138899" d="M3362.629,432.915c-1.503,0.729-3.046,1.479-5.257,2.554c0.455-4.52,4.985-3.294,6.549-5.584
				c-0.153-1.309-0.403-2.616-0.409-3.925c-0.001-0.487,0.533-1.331,0.902-1.376c0.479-0.057,1.452,0.479,1.492,0.835
				c0.167,1.54,0.07,3.106,0.07,5.444c0.375,0.208,1.467,0.817,2.711,1.515c-1.765,0.854-3.577,1.732-5.707,2.762
				C3362.85,434.313,3362.721,433.489,3362.629,432.915z"/>
			<path fill="#138899" d="M3360.203,445.674c-1.29-0.355-2.221-0.614-3.151-0.872c0.384-0.767,0.768-1.532,1.242-2.481
				c-0.711,0.051-1.396,0.1-2.081,0.147c-0.184-0.186-0.367-0.371-0.552-0.556c0.55-0.619,1.028-1.673,1.667-1.775
				c2.019-0.321,3.047-0.813,1.637-2.899c-0.145-0.218,0.467-0.915,0.947-1.791c0.721,1.259,1.16,2.027,1.977,3.452
				c0-1.495,0-2.234,0-2.974c0.231-0.148,0.463-0.3,0.692-0.448c0.669,0.734,1.827,1.435,1.888,2.214
				c0.091,1.17-0.591,2.396-0.906,3.467c-1.164-0.817-1.787-1.256-2.412-1.693c-0.244,0.763-0.598,1.509-0.714,2.288
				C3360.277,442.829,3360.295,443.932,3360.203,445.674z"/>
			<path fill="#138899" d="M3327.09,432.723c2.902,1.94-3.467,4.503,2.671,5.501c-0.448,0.16-0.898,0.32-1.349,0.479
				c-1.492-0.428-2.984-0.856-5.022-1.442C3324.771,435.566,3325.934,434.139,3327.09,432.723z"/>
			<path fill="#138899" d="M3315.441,441.146c-0.48-1.049-0.963-2.097-1.56-3.393c-0.591,0.875-1.104,1.637-1.62,2.398
				c-0.239-0.079-0.48-0.158-0.722-0.236c0.256-0.848,0.315-2.277,0.805-2.432c1.344-0.427,2.865-0.317,4.74-0.45
				c-0.396,1.726-0.655,2.865-0.918,4.006C3315.926,441.075,3315.682,441.11,3315.441,441.146z"/>
			<path fill="#138899" d="M3362.773,421.604c0,1.869,0,3.74,0,5.609c-0.162,0.135-0.326,0.271-0.488,0.406
				c-0.792-1.593-1.76-3.139-2.254-4.813c-0.121-0.403,1.316-1.245,2.037-1.885C3362.305,421.148,3362.539,421.376,3362.773,421.604
				z"/>
			<path fill="#138899" d="M3442.347,560.641c-0.538-1.354-0.921-2.32-1.29-3.256c1.66-0.607,3.139-1.146,5.543-2.026
				C3445.009,557.335,3443.811,558.823,3442.347,560.641z"/>
			<path fill="#138899" d="M3467.875,528.725c-1.641,0.097-2.918,0.168-4.925,0.282c0.198-0.842,0.114-2.241,0.675-2.556
				C3465.66,525.306,3466.645,526.856,3467.875,528.725z"/>
			<path fill="#138899" d="M3358.719,425.145c-1.305,0.668-2.381,1.219-4.299,2.196c0.262-1.444,0.154-2.558,0.671-3.176
				c0.445-0.535,1.604-0.506,2.847-0.833C3358.087,423.677,3358.389,424.38,3358.719,425.145z"/>
			<path fill="#138899" d="M3352.768,423.705c-1.289,1.805-2.291,3.208-3.775,5.286c-0.41-2.041-0.65-3.248-0.848-4.222
				C3349.648,424.423,3350.967,424.12,3352.768,423.705z"/>
			<path fill="#138899" d="M3303.841,447.233c0.697,1.086,1.413,2.163,2.022,3.295c0.021,0.044-0.985,0.611-1.514,0.935
				c-0.602-1.175-1.201-2.35-1.802-3.525C3302.979,447.702,3303.41,447.468,3303.841,447.233z"/>
			<path fill="#138899" d="M3345.563,557.117c0.178-1.494,0.354-2.988,0.532-4.48c0.204-0.1,0.409-0.197,0.613-0.298
				c0.471,0.849,1.306,1.692,1.31,2.542c0.007,0.889-0.787,1.782-1.231,2.673C3346.377,557.408,3345.969,557.264,3345.563,557.117z"
				/>
			<path fill="#138899" d="M3321.698,428.239c-0.497-1.704-0.991-3.409-1.486-5.114c0.317-0.084,0.635-0.167,0.952-0.252
				C3322.916,424.267,3323.091,426.089,3321.698,428.239z"/>
			<path fill="#138899" d="M3313.49,538.092c-0.74,1.154-1.481,2.308-2.469,3.846c-0.276-1.146-1.035-2.453-0.651-3.223
				c0.366-0.734,1.923-0.907,2.954-1.327C3313.38,537.622,3313.436,537.857,3313.49,538.092z"/>
			<path fill="#138899" d="M3319.259,440.484c-1.667-1.047-2.644-2.238,0.027-4.814c0.435,1.879,0.733,3.186,1.034,4.49
				C3319.967,440.268,3319.613,440.375,3319.259,440.484z"/>
		</g>
	</g>
</g>
<path fill="#138899" d="M3492.102,462.023c-81.877,0-163.428,0-245.438,0c1.492-10.662,2.945-21.111,4.42-31.558
	c1.325-9.379,2.876-18.729,3.956-28.138c1.01-8.795,7.839-16.655,18.239-16.244c13.771,0.544,27.577,0.159,41.37,0.126
	c13.136-0.032,24.318-10.907,24.314-23.991c-0.003-10.035,0.191-20.152-0.971-30.085c-1.178-10.052-6.577-18.52-13.25-26.116
	c-22.1-25.165-21.486-61.158,1.373-84.312c23.186-23.48,60.716-24.297,84.8-1.845c24.177,22.538,26.143,60.11,4.169,85.105
	c-10.34,11.763-16.018,24.974-15.217,40.804c0.268,5.302,0.031,10.629,0.054,15.944c0.054,13.33,11.071,24.453,24.323,24.489
	c14.221,0.038,28.444-0.01,42.668,0.018c8.289,0.015,15.256,5.453,16.479,13.5c3.058,20.148,5.828,40.342,8.703,60.518
	C3492.154,460.661,3492.102,461.099,3492.102,462.023z M3264.152,446.828c70.736,0,140.57,0,210.699,0
	c-1.944-13.469-4.137-26.486-5.558-39.586c-0.542-4.995-2.42-5.944-6.965-5.837c-12.489,0.296-24.992,0.129-37.487,0.069
	c-22.433-0.104-40.152-17.877-40.175-40.234c-0.004-4.453,0.133-8.911-0.055-13.357c-0.869-20.531,5.799-38.042,19.44-53.53
	c17.353-19.698,14.031-49.822-6.467-65.896c-20.389-15.987-50.021-11.714-65.223,9.407c-12.691,17.632-11.18,40.73,3.986,58.297
	c8.332,9.649,14.869,20.413,16.588,33.028c1.463,10.741,1.186,21.752,1.241,32.646c0.111,21.567-17.789,39.48-39.364,39.646
	c-10.197,0.076-20.396,0.023-30.595,0.027c-4.426,0.002-8.852,0.001-13.612,0.001
	C3268.43,416.809,3266.313,431.657,3264.152,446.828z"/>
<path opacity="0.32" fill="#B3C99F" enable-background="new    " d="M3423.854,319.576c4.758-7.288,9.241-14.253,13.861-21.128
	c0.651-0.971,1.859-1.742,2.978-2.206c56.429-23.428,112.876-46.813,169.323-70.192c0.254-0.104,0.559-0.081,1.525-0.206
	c9.556,23.046,19.182,46.257,28.958,69.83c-9.065,3.788-17.889,7.503-26.731,11.166c-50.354,20.855-100.703,41.717-151.092,62.489
	c-2.312,0.953-4.958,1.477-7.458,1.513c-10.998,0.161-21.999,0.07-32.999,0.07c-0.079-0.354-0.16-0.708-0.238-1.063
	c66.127-27.398,132.254-54.798,198.707-82.332c-5.848-14.11-11.591-27.967-17.496-42.214
	C3543.159,270.166,3483.486,294.88,3423.854,319.576z"/>
<path d="M3247.941,492.261c0-4.902,0-9.59,0-14.486c81.039,0,161.836,0,242.977,0c0,4.607,0,9.272,0,14.486
	C3410.203,492.261,3329.271,492.261,3247.941,492.261z"/>
<path opacity="0.32" fill="#B3C99F" enable-background="new    " d="M3443.061,243.849c-1.93-4.879-3.765-9.52-5.616-14.204
	c34.504-33.037,96.276-34.96,133.291-3.876c-4.873,2.044-9.584,4.129-14.396,5.947c-1.009,0.383-2.563,0.123-3.57-0.404
	c-39.094-20.462-75.383-16.249-108.967,12.233C3443.699,243.634,3443.54,243.656,3443.061,243.849z"/>
<path fill="#FFFFFF" d="M3264.152,446.828c2.16-15.171,4.277-30.021,6.457-45.318c4.762,0,9.188,0.001,13.613-0.001
	c10.197-0.004,20.396,0.049,30.594-0.028c21.576-0.164,39.477-18.078,39.365-39.646c-0.058-10.894,0.221-21.904-1.242-32.646
	c-1.719-12.615-8.256-23.379-16.588-33.028c-15.165-17.565-16.678-40.665-3.986-58.297c15.2-21.121,44.834-25.396,65.223-9.407
	c20.498,16.073,23.818,46.197,6.467,65.896c-13.643,15.488-20.311,32.999-19.44,53.53c0.188,4.446,0.051,8.904,0.055,13.357
	c0.021,22.357,17.742,40.132,40.175,40.234c12.496,0.06,24.998,0.227,37.487-0.069c4.545-0.107,6.423,0.842,6.966,5.837
	c1.42,13.1,3.611,26.117,5.557,39.586C3404.725,446.828,3334.89,446.828,3264.152,446.828z"/>
<path opacity="0.32" fill="#B3C99F" enable-background="new    " d="M3499.105,401.234c15.646,0.892,30.174-1.227,43.867-7.435
	c26.219-11.889,43.317-31.804,51.678-59.354c0.563-1.857,2.306-3.831,4.032-4.764c3.636-1.961,7.624-3.267,11.472-4.835
	c0.393-0.16,0.803-0.272,1.955-0.659c-0.729,3.941-1.228,7.514-2.063,11.006c-11.514,48.082-55.39,82.105-104.758,81.433
	c-3.282-0.045-4.56-0.955-4.688-4.298C3500.465,408.789,3499.681,405.275,3499.105,401.234z"/>
<text transform="matrix(0.9254 -0.3791 0.3791 0.9254 3465.0449 343.0215)" opacity="0.32" fill="#B3C99F" enable-background="new    " font-family="'Bebas'" font-size="32.9874">COMPLETE</text>
<rect x="3285.734" y="515.306" fill="none" width="196.418" height="89.865"/>
<text transform="matrix(1 0 0 1 3285.7354 587.5088)" fill="#FFFFFF" font-family="'Bebas'" font-size="81.037">100%</text>
<rect x="3268.424" y="599.68" fill="none" width="196.418" height="35.866"/>
<text transform="matrix(1 0 0 1 3311.7236 622.7236)" fill="#FFFFFF" font-family="'Bebas'" font-size="25.8629">COMPLETE</text>
<g>
	<g>
		<defs>
			<path id="SVGID_5_" d="M4183.264-450.927c2.467,1.644,60.819,31.3,50.828,90.214c-7.658,45.15-32.776,62.622-34.422,84.807
				c-1.643,22.187,1.646,25.604,1.646,25.604s2.224,7.723,7.894,9.513c10.91,3.446,26.646,2.685,45.545,2.685
				c18.896,0,28.76,1.104,35.334,7.678c6.571,6.573,14.789,79.422,14.789,79.422l124.896-10.683c0,0,79.704-73.133,82.991-84.636
				c3.287-11.502-26.295-168.446-26.295-168.446s-50.942-78.062-53.409-78.062c-2.465,0-125.719,1.645-125.719,1.645
				L4183.264-450.927z"/>
		</defs>
		<clipPath id="SVGID_6_">
			<use xlink:href="#SVGID_5_"  overflow="visible"/>
		</clipPath>
		<g clip-path="url(#SVGID_6_)">
			<g>
				<path fill="#C5D92F" d="M4434.395-284.267c-0.621-1.566-1.063-2.683-1.492-3.763c1.922-0.703,3.629-1.326,6.406-2.343
					C4437.471-288.087,4436.086-286.367,4434.395-284.267z"/>
				<path fill="#C5D92F" d="M4463.893-321.146c-1.896,0.111-3.373,0.194-5.69,0.326c0.229-0.973,0.133-2.589,0.78-2.953
					C4461.334-325.097,4462.469-323.305,4463.893-321.146z"/>
				<path fill="#C5D92F" d="M4322.559-288.338c0.205-1.727,0.41-3.453,0.617-5.178c0.234-0.115,0.473-0.229,0.709-0.344
					c0.543,0.979,1.508,1.955,1.513,2.938c0.006,1.026-0.909,2.059-1.424,3.088C4323.502-288.002,4323.029-288.169,4322.559-288.338
					z"/>
				<path fill="#C5D92F" d="M4285.5-310.322c-0.855,1.334-1.712,2.665-2.854,4.443c-0.318-1.324-1.195-2.835-0.752-3.724
					c0.424-0.849,2.223-1.048,3.414-1.533C4285.373-310.865,4285.438-310.593,4285.5-310.322z"/>
				<path fill="#C5D92F" d="M4484.633-286.064c-2.746-10.933-3.154-21.701-0.073-32.566c3.985-14.065,1.582-26.506-9.851-36.642
					c-0.092-0.078-0.166-0.178-0.252-0.262c-7.696-7.484-13.373-16.115-16.117-26.477c-0.73-2.767-1.842-5.44-2.826-8.14
					c-3.595-9.887-10.763-16.095-21.004-18.929c-13.191-3.655-25.008-9.368-34.804-19.111c-6.748-6.714-14.972-11.382-25.289-10.339
					c-3.528,0.359-7.065,0.936-10.51,1.762c-11.034,2.654-21.99,3.015-33.144,0.385c-5.973-1.407-12.196-1.815-18.101-2.643
					l-3.817,1.726c-0.059-0.074-0.115-0.146-0.176-0.222c-1.774,0.794-3.383,1.513-4.582,2.047c0.039,0.099,0.074,0.18,0.109,0.275
					l-3.303,1.493c-2.551,2.012-5.763,3.908-8.135,6.521c-9.207,10.145-21.806,14.714-34.246,18.78
					c-6.004,1.963-11.045,4.457-14.861,8.796c-2.859,3.25-5.068,7.466-6.264,11.608c-4.035,13.965-11.072,25.955-21.713,36.203
					c-6.114,5.883-9.365,13.412-8.527,22.107c0.277,2.867,0.493,5.796,1.264,8.557c3.395,12.14,3.875,24.199,0.148,36.392
					c-4.254,13.922,0.109,25.52,10.521,35.459c6.729,6.424,12.211,13.704,14.941,22.695c1.184,3.886,2.665,7.682,3.98,11.528
					c3.359,9.835,10.267,16.081,20.398,18.955c13.253,3.759,25.359,9.256,35.143,19.219c9.547,9.722,21.414,12.26,34.754,9.062
					c4.388-1.053,8.863-1.872,13.349-2.392c9.688-1.125,18.989,1.503,28.429,3.001c7.332,1.167,14.778,1.188,21.25-3.231
					c3.61-2.461,7.078-5.179,10.299-8.106c7.725-7.024,16.136-12.688,26.641-15.14c15.241-3.559,25.909-11.854,29.557-27.479
					c2.621-11.241,8.73-20.65,17.068-28.796c1.484-1.447,2.102-3.697,3.377-5.394c1.797-2.368,4.322-4.319,5.673-6.881
					C4488.02-269.978,4486.615-278.183,4484.633-286.064z M4286.175-415.895l-1.013,0.633c-0.029-0.106-0.059-0.213-0.086-0.318
					C4285.441-415.684,4285.811-415.79,4286.175-415.895z"/>
			</g>
			<rect x="4256.896" y="-359.184" fill="none" width="226.961" height="103.84"/>
			<text transform="matrix(1 0 0 1 4256.8965 -275.7529)" fill="#FFFFFF" font-family="'Bebas'" font-size="93.6385">100%</text>
			<rect x="4234.773" y="-252.062" fill="none" width="226.961" height="41.443"/>
			<text transform="matrix(1 0 0 1 4284.8066 -225.4346)" fill="#FFFFFF" font-family="'Bebas'" font-size="29.8846">COMPLETE</text>
		</g>
	</g>
</g>
</svg>
